# Blender 3.6.1
# www.blender.org
mtllib lavalamp.mtl
o Circle
v 0.000000 0.000000 -1.000000
v -0.500000 0.000000 -0.866025
v -0.866025 0.000000 -0.500000
v -1.000000 0.000000 0.000000
v -0.866025 0.000000 0.500000
v -0.500000 0.000000 0.866025
v 0.000000 0.000000 1.000000
v 0.500000 0.000000 0.866025
v 0.866025 0.000000 0.500000
v 1.000000 0.000000 0.000000
v 0.866025 0.000000 -0.500000
v 0.500000 0.000000 -0.866025
v 0.000000 0.046286 -1.000000
v -0.500000 0.046286 -0.866025
v -0.866025 0.046286 -0.500000
v -1.000000 0.046286 0.000000
v -0.866025 0.046286 0.500000
v -0.500000 0.046286 0.866025
v 0.000000 0.046286 1.000000
v 0.500000 0.046286 0.866025
v 0.866025 0.046286 0.500000
v 1.000000 0.046286 0.000000
v 0.500000 0.046286 -0.866025
v -0.000000 6.958789 0.000000
v -0.429862 6.328890 -0.248181
v -0.496362 6.328890 -0.000000
v 0.496362 6.328890 -0.000000
v -0.000000 6.328890 0.496362
v 0.248181 6.328890 0.429862
v -0.429862 6.328890 0.248181
v 0.248181 6.328890 -0.429862
v -0.000000 6.328890 -0.496362
v -0.248181 6.328890 -0.429862
v 0.429862 6.328890 0.248181
v -0.248181 6.328890 0.429862
v 0.866025 0.046286 -0.500000
v 0.429862 6.328890 -0.248181
v 0.000000 2.866618 -1.011304
v 0.000000 2.896290 -1.017747
v -0.505652 2.866618 -0.875815
v -0.508873 2.896290 -0.881395
v -0.875815 2.866618 -0.505652
v -0.881395 2.896290 -0.508873
v -1.011304 2.866618 0.000000
v -1.017747 2.896290 0.000000
v -0.875815 2.866618 0.505652
v -0.881395 2.896290 0.508873
v -0.505652 2.866618 0.875815
v -0.508873 2.896290 0.881395
v 0.000000 2.866618 1.011304
v 0.000000 2.896290 1.017747
v 0.505652 2.866618 0.875815
v 0.508873 2.896290 0.881395
v 0.875815 2.866618 0.505652
v 0.881395 2.896290 0.508873
v 1.011304 2.866618 0.000000
v 1.017747 2.896290 0.000000
v 0.505652 2.866618 -0.875815
v 0.508873 2.896290 -0.881395
v 0.875815 2.866618 -0.505652
v 0.881395 2.896290 -0.508873
v -0.000000 1.479561 -0.485975
v -0.000000 1.413977 -0.485893
v -0.000000 1.446775 -0.480809
v -0.242947 1.413977 -0.420796
v -0.242988 1.479561 -0.420867
v -0.240405 1.446775 -0.416393
v -0.420796 1.413977 -0.242947
v -0.420867 1.479561 -0.242988
v -0.416393 1.446775 -0.240405
v -0.485893 1.413977 0.000000
v -0.485975 1.479561 0.000000
v -0.480809 1.446775 0.000000
v -0.420796 1.413977 0.242947
v -0.420867 1.479561 0.242988
v -0.416393 1.446775 0.240405
v -0.242947 1.413977 0.420796
v -0.242988 1.479561 0.420867
v -0.240405 1.446775 0.416393
v -0.000000 1.413977 0.485893
v -0.000000 1.479561 0.485975
v -0.000000 1.446775 0.480809
v 0.242947 1.413977 0.420796
v 0.242988 1.479561 0.420867
v 0.240405 1.446775 0.416393
v 0.420796 1.413977 0.242947
v 0.420867 1.479561 0.242988
v 0.416393 1.446775 0.240405
v 0.485893 1.413977 0.000000
v 0.485975 1.479561 0.000000
v 0.480809 1.446775 0.000000
v 0.242988 1.479561 -0.420867
v 0.242947 1.413977 -0.420796
v 0.240405 1.446775 -0.416393
v 0.420796 1.413977 -0.242947
v 0.420867 1.479561 -0.242988
v 0.416393 1.446775 -0.240405
v -0.000000 6.958789 -0.341247
v -0.000000 6.902792 -0.408430
v -0.000000 6.951287 -0.371698
v -0.000000 6.930790 -0.396289
v -0.204215 6.902792 -0.353711
v -0.170623 6.958789 -0.295528
v -0.198144 6.930790 -0.343196
v -0.185849 6.951287 -0.321900
v -0.353711 6.902792 -0.204215
v -0.295528 6.958789 -0.170623
v -0.343196 6.930790 -0.198144
v -0.321900 6.951287 -0.185849
v -0.408430 6.902792 -0.000000
v -0.341247 6.958789 -0.000000
v -0.396289 6.930790 -0.000000
v -0.371698 6.951287 -0.000000
v -0.353711 6.902792 0.204215
v -0.295528 6.958789 0.170623
v -0.343196 6.930790 0.198144
v -0.321900 6.951287 0.185849
v -0.204215 6.902792 0.353711
v -0.170623 6.958789 0.295528
v -0.198144 6.930790 0.343196
v -0.185849 6.951287 0.321900
v -0.000000 6.902792 0.408430
v -0.000000 6.958789 0.341247
v -0.000000 6.930790 0.396289
v -0.000000 6.951287 0.371698
v 0.204215 6.902792 0.353711
v 0.170623 6.958789 0.295528
v 0.198144 6.930790 0.343196
v 0.185849 6.951287 0.321900
v 0.353711 6.902792 0.204215
v 0.295528 6.958789 0.170623
v 0.343196 6.930790 0.198144
v 0.321900 6.951287 0.185849
v 0.408430 6.902792 -0.000000
v 0.341247 6.958789 -0.000000
v 0.396289 6.930790 -0.000000
v 0.371698 6.951287 -0.000000
v 0.170623 6.958789 -0.295528
v 0.204215 6.902792 -0.353711
v 0.185849 6.951287 -0.321900
v 0.198144 6.930790 -0.343196
v 0.353711 6.902792 -0.204215
v 0.295528 6.958789 -0.170623
v 0.343196 6.930790 -0.198144
v 0.321900 6.951287 -0.185849
v -0.866025 0.029398 0.500000
v -0.500000 0.029398 0.866025
v 0.500000 0.029398 -0.866025
v 0.000000 0.029398 -1.000000
v -0.500000 0.029398 -0.866025
v -0.866025 0.029398 -0.500000
v 0.866025 0.029398 0.500000
v 1.000000 0.029398 0.000000
v 0.000000 0.029398 1.000000
v -1.000000 0.029398 0.000000
v 0.500000 0.029398 0.866025
v 0.866025 0.029398 -0.500000
v -0.500000 0.012249 0.866025
v 0.000000 0.012249 -1.000000
v -0.866025 0.012249 -0.500000
v 1.000000 0.012249 0.000000
v 0.000000 0.012249 1.000000
v -1.000000 0.012249 0.000000
v 0.500000 0.012249 0.866025
v 0.866025 0.012249 -0.500000
v -0.866025 0.012249 0.500000
v 0.500000 0.012249 -0.866025
v -0.500000 0.012249 -0.866025
v 0.866025 0.012249 0.500000
v 0.000000 0.000000 -0.940000
v -0.470000 0.000000 -0.814064
v -0.814064 0.000000 -0.470000
v -0.940000 0.000000 0.000000
v -0.814064 0.000000 0.470000
v -0.470000 0.000000 0.814064
v 0.000000 0.000000 0.940000
v 0.470000 0.000000 0.814064
v 0.814064 0.000000 0.470000
v 0.940000 0.000000 0.000000
v 0.814064 0.000000 -0.470000
v 0.470000 0.000000 -0.814064
v 0.000000 0.035856 -0.940913
v -0.470457 0.035856 -0.814855
v -0.814855 0.035856 -0.470457
v -0.940913 0.035856 0.000000
v -0.814855 0.035856 0.470457
v -0.470457 0.035856 0.814855
v -0.000000 0.035856 0.940913
v 0.470457 0.035856 0.814855
v 0.814855 0.035856 0.470457
v 0.940913 0.035856 -0.000000
v 0.470457 0.035856 -0.814855
v 0.000000 6.898789 0.000000
v -0.378500 6.319803 -0.218527
v -0.437054 6.319803 -0.000000
v 0.437054 6.319803 -0.000000
v -0.000000 6.319803 0.437054
v 0.218527 6.319803 0.378500
v -0.378500 6.319803 0.218527
v 0.218527 6.319803 -0.378500
v -0.000000 6.319803 -0.437054
v -0.218527 6.319803 -0.378500
v 0.378500 6.319803 0.218527
v -0.218527 6.319803 0.378500
v 0.814855 0.035856 -0.470457
v 0.378500 6.319803 -0.218527
v 0.000000 2.883460 -0.953716
v 0.000000 2.909022 -0.959113
v -0.476858 2.883460 -0.825942
v -0.479557 2.909022 -0.830616
v -0.825942 2.883460 -0.476858
v -0.830616 2.909022 -0.479557
v -0.953716 2.883460 0.000000
v -0.959113 2.909022 0.000000
v -0.825942 2.883460 0.476858
v -0.830616 2.909022 0.479557
v -0.476858 2.883460 0.825942
v -0.479557 2.909022 0.830616
v 0.000000 2.883460 0.953716
v 0.000000 2.909022 0.959113
v 0.476858 2.883460 0.825942
v 0.479557 2.909022 0.830616
v 0.825942 2.883460 0.476858
v 0.830616 2.909022 0.479557
v 0.953716 2.883460 0.000000
v 0.959113 2.909022 0.000000
v 0.476858 2.883460 -0.825942
v 0.479557 2.909022 -0.830616
v 0.825942 2.883460 -0.476858
v 0.830616 2.909022 -0.479557
v -0.000000 1.495195 -0.428048
v 0.000000 1.398490 -0.427926
v 0.000000 1.446852 -0.420809
v -0.213963 1.398490 -0.370595
v -0.214024 1.495195 -0.370701
v -0.210405 1.446852 -0.364432
v -0.370595 1.398490 -0.213963
v -0.370701 1.495195 -0.214024
v -0.364432 1.446852 -0.210405
v -0.427926 1.398490 0.000000
v -0.428048 1.495195 0.000000
v -0.420809 1.446852 0.000000
v -0.370595 1.398490 0.213963
v -0.370701 1.495195 0.214024
v -0.364432 1.446852 0.210405
v -0.213963 1.398490 0.370595
v -0.214024 1.495195 0.370701
v -0.210405 1.446852 0.364432
v -0.000000 1.398490 0.427926
v -0.000000 1.495195 0.428048
v -0.000000 1.446852 0.420809
v 0.213963 1.398490 0.370595
v 0.214024 1.495195 0.370701
v 0.210405 1.446852 0.364432
v 0.370595 1.398490 0.213963
v 0.370701 1.495195 0.214024
v 0.364432 1.446852 0.210405
v 0.427926 1.398490 0.000000
v 0.428048 1.495195 0.000000
v 0.420809 1.446852 0.000000
v 0.214024 1.495195 -0.370701
v 0.213963 1.398490 -0.370595
v 0.210405 1.446852 -0.364432
v 0.370595 1.398490 -0.213963
v 0.370701 1.495195 -0.214024
v 0.364432 1.446852 -0.210405
v 0.000000 6.899381 -0.332837
v -0.000000 6.886504 -0.350683
v 0.000000 6.898652 -0.342896
v 0.000000 6.895897 -0.347478
v -0.175342 6.886504 -0.303701
v -0.166418 6.899381 -0.288245
v -0.173739 6.895897 -0.300925
v -0.171448 6.898652 -0.296957
v -0.303701 6.886504 -0.175342
v -0.288245 6.899381 -0.166418
v -0.300925 6.895897 -0.173739
v -0.296956 6.898652 -0.171448
v -0.350683 6.886504 -0.000000
v -0.332836 6.899381 -0.000000
v -0.347478 6.895897 -0.000000
v -0.342896 6.898652 -0.000000
v -0.303701 6.886504 0.175342
v -0.288245 6.899381 0.166418
v -0.300925 6.895897 0.173739
v -0.296956 6.898652 0.171448
v -0.175342 6.886504 0.303701
v -0.166418 6.899381 0.288245
v -0.173739 6.895897 0.300925
v -0.171448 6.898652 0.296957
v -0.000000 6.886504 0.350683
v -0.000000 6.899381 0.332837
v -0.000000 6.895897 0.347478
v -0.000000 6.898652 0.342896
v 0.175342 6.886504 0.303701
v 0.166418 6.899381 0.288245
v 0.173739 6.895897 0.300925
v 0.171448 6.898652 0.296957
v 0.303701 6.886504 0.175342
v 0.288245 6.899381 0.166418
v 0.300925 6.895897 0.173739
v 0.296956 6.898652 0.171448
v 0.350683 6.886504 -0.000000
v 0.332836 6.899381 -0.000000
v 0.347478 6.895897 -0.000000
v 0.342896 6.898652 -0.000000
v 0.166418 6.899381 -0.288245
v 0.175342 6.886504 -0.303701
v 0.171448 6.898652 -0.296957
v 0.173739 6.895897 -0.300925
v 0.303701 6.886504 -0.175342
v 0.288245 6.899381 -0.166418
v 0.300925 6.895897 -0.173739
v 0.296956 6.898652 -0.171448
v -0.814064 0.029398 0.470000
v -0.470000 0.029398 0.814064
v 0.470000 0.029398 -0.814064
v 0.000000 0.029398 -0.940000
v -0.470000 0.029398 -0.814064
v -0.814064 0.029398 -0.470000
v 0.814064 0.029398 0.470000
v 0.940000 0.029398 0.000000
v 0.000000 0.029398 0.940000
v -0.940000 0.029398 0.000000
v 0.470000 0.029398 0.814064
v 0.814064 0.029398 -0.470000
v -0.470000 0.012249 0.814064
v 0.000000 0.012249 -0.940000
v -0.814064 0.012249 -0.470000
v 0.940000 0.012249 0.000000
v 0.000000 0.012249 0.940000
v -0.940000 0.012249 0.000000
v 0.470000 0.012249 0.814064
v 0.814064 0.012249 -0.470000
v -0.814064 0.012249 0.470000
v 0.470000 0.012249 -0.814064
v -0.470000 0.012249 -0.814064
v 0.814064 0.012249 0.470000
vn -0.5000 -0.0000 0.8660
vn -0.4924 0.1738 0.8528
vn -0.8528 0.1738 0.4924
vn -0.8660 -0.0000 0.5000
vn -0.0000 -0.0000 -1.0000
vn -0.0000 0.1738 -0.9848
vn 0.4924 0.1738 -0.8528
vn 0.5000 -0.0000 -0.8660
vn -0.8660 -0.0000 -0.5000
vn -0.8528 0.1738 -0.4924
vn -0.4924 0.1738 -0.8528
vn -0.5000 -0.0000 -0.8660
vn 1.0000 -0.0000 -0.0000
vn 0.9848 0.1738 -0.0000
vn 0.8528 0.1738 0.4924
vn 0.8660 -0.0000 0.5000
vn -0.0000 -0.0000 1.0000
vn -0.0000 0.1738 0.9848
vn -1.0000 -0.0000 -0.0000
vn -0.9848 0.1738 -0.0000
vn 0.8660 -0.0000 -0.5000
vn 0.8528 0.1738 -0.4924
vn 0.5000 -0.0000 0.8660
vn 0.4924 0.1738 0.8528
vn -0.8361 -0.2606 0.4827
vn -0.8312 -0.2807 0.4799
vn -0.9598 -0.2807 -0.0000
vn -0.9655 -0.2606 -0.0000
vn 0.8361 -0.2606 -0.4827
vn 0.8312 -0.2807 -0.4799
vn 0.9598 -0.2807 -0.0000
vn 0.9655 -0.2606 -0.0000
vn 0.8361 -0.2606 0.4827
vn 0.8312 -0.2807 0.4799
vn 0.4799 -0.2807 0.8312
vn 0.4827 -0.2606 0.8361
vn -0.4827 -0.2606 0.8361
vn -0.4799 -0.2807 0.8312
vn 0.4827 -0.2606 -0.8361
vn 0.4799 -0.2807 -0.8312
vn -0.0000 -0.2606 -0.9655
vn -0.0000 -0.2807 -0.9598
vn -0.0000 -0.2606 0.9655
vn -0.0000 -0.2807 0.9598
vn -0.4831 0.2581 -0.8367
vn -0.0000 0.2581 -0.9661
vn -0.8312 -0.2807 -0.4799
vn -0.8361 -0.2606 -0.4827
vn 0.8367 0.2581 -0.4831
vn 0.9661 0.2581 -0.0000
vn 0.4831 0.2581 -0.8367
vn -0.1214 0.9901 0.0701
vn -0.0000 1.0000 -0.0000
vn -0.1402 0.9901 -0.0000
vn 0.1214 0.9901 -0.0701
vn 0.1402 0.9901 -0.0000
vn 0.1214 0.9901 0.0701
vn 0.0701 0.9901 0.1214
vn -0.0701 0.9901 0.1214
vn 0.0701 0.9901 -0.1214
vn -0.0000 0.9901 -0.1402
vn -0.0000 0.9901 0.1402
vn -0.4202 -0.5419 -0.7278
vn -0.4812 0.2715 -0.8335
vn -0.0000 0.2715 -0.9624
vn -0.0000 -0.5419 -0.8404
vn -0.1214 0.9901 -0.0701
vn 0.7278 -0.5419 -0.4202
vn 0.8335 0.2715 -0.4812
vn 0.9624 0.2715 -0.0000
vn 0.8404 -0.5419 -0.0000
vn -0.8404 -0.5419 -0.0000
vn -0.9624 0.2715 -0.0000
vn -0.8335 0.2715 -0.4812
vn -0.7278 -0.5419 -0.4202
vn 0.4202 -0.5419 -0.7278
vn 0.4812 0.2715 -0.8335
vn 0.4202 -0.5419 0.7278
vn 0.4812 0.2715 0.8335
vn -0.0000 0.2715 0.9624
vn -0.0000 -0.5419 0.8404
vn -0.7278 -0.5419 0.4202
vn -0.8335 0.2715 0.4812
vn 0.7278 -0.5419 0.4202
vn 0.8335 0.2715 0.4812
vn -0.4202 -0.5419 0.7278
vn -0.4812 0.2715 0.8335
vn -0.0701 0.9901 -0.1214
vn -0.0000 0.2581 0.9661
vn -0.4831 0.2581 0.8367
vn 0.8367 0.2581 0.4831
vn -0.8367 0.2581 -0.4831
vn -0.8367 0.2581 0.4831
vn 0.4831 0.2581 0.8367
vn -0.4799 -0.2807 -0.8312
vn -0.4827 -0.2606 -0.8361
vn -0.9661 0.2581 -0.0000
vn -0.4348 0.4938 -0.7531
vn -0.0000 0.4938 -0.8696
vn -0.7531 0.4938 -0.4348
vn -0.8696 0.4938 -0.0000
vn -0.7531 0.4938 0.4348
vn -0.4348 0.4938 0.7531
vn -0.0000 0.4938 0.8696
vn 0.4348 0.4938 0.7531
vn 0.7531 0.4938 0.4348
vn 0.8696 0.4938 -0.0000
vn 0.4348 0.4938 -0.7531
vn 0.7531 0.4938 -0.4348
vn -0.0000 -0.0013 -1.0000
vn -0.5000 -0.0013 -0.8660
vn -0.8660 -0.0013 -0.5000
vn -1.0000 -0.0013 -0.0000
vn -0.8660 -0.0013 0.5000
vn -0.5000 -0.0013 0.8660
vn -0.0000 -0.0013 1.0000
vn 0.5000 -0.0013 0.8660
vn 0.8660 -0.0013 0.5000
vn 1.0000 -0.0013 -0.0000
vn 0.5000 -0.0013 -0.8660
vn 0.8660 -0.0013 -0.5000
vn -0.0000 0.8772 -0.4800
vn -0.2400 0.8772 -0.4157
vn -0.0000 0.5816 -0.8135
vn -0.4068 0.5815 -0.7045
vn -0.4157 0.8772 -0.2400
vn -0.7045 0.5815 -0.4068
vn -0.4800 0.8772 -0.0000
vn -0.8135 0.5816 -0.0000
vn -0.4157 0.8772 0.2400
vn -0.7045 0.5816 0.4068
vn -0.2400 0.8772 0.4157
vn -0.4068 0.5816 0.7045
vn -0.0000 0.8772 0.4800
vn -0.0000 0.5816 0.8135
vn 0.2400 0.8772 0.4157
vn 0.4068 0.5815 0.7045
vn 0.4157 0.8772 0.2400
vn 0.7045 0.5815 0.4068
vn 0.4800 0.8772 -0.0000
vn 0.8135 0.5816 -0.0000
vn 0.2400 0.8772 -0.4157
vn 0.4068 0.5816 -0.7045
vn 0.4157 0.8772 -0.2400
vn 0.7045 0.5816 -0.4068
vn -0.3786 -0.6532 0.6557
vn -0.6557 -0.6532 0.3786
vn -0.0000 -0.6532 -0.7572
vn 0.3786 -0.6532 -0.6557
vn -0.6557 -0.6532 -0.3786
vn -0.3786 -0.6532 -0.6557
vn 0.7572 -0.6532 -0.0000
vn 0.6557 -0.6532 0.3786
vn -0.0000 -0.6532 0.7572
vn -0.7572 -0.6532 -0.0000
vn 0.6557 -0.6532 -0.3786
vn 0.3786 -0.6532 0.6557
vn 0.4987 0.0710 -0.8638
vn 0.8638 0.0710 -0.4987
vn 0.8612 -0.1054 -0.4972
vn 0.4972 -0.1054 -0.8612
vn -0.0000 0.0710 0.9975
vn -0.4987 0.0710 0.8638
vn -0.4972 -0.1054 0.8612
vn -0.0000 -0.1054 0.9944
vn 0.8638 0.0710 0.4987
vn 0.4987 0.0710 0.8638
vn 0.4972 -0.1054 0.8612
vn 0.8612 -0.1054 0.4972
vn -0.9975 0.0710 -0.0000
vn -0.8638 0.0710 -0.4987
vn -0.8612 -0.1054 -0.4972
vn -0.9944 -0.1054 -0.0000
vn -0.0000 0.0710 -0.9975
vn -0.0000 -0.1054 -0.9944
vn 0.9975 0.0710 -0.0000
vn 0.9944 -0.1054 -0.0000
vn -0.8638 0.0710 0.4987
vn -0.8612 -0.1054 0.4972
vn -0.4987 0.0710 -0.8638
vn -0.4972 -0.1054 -0.8612
vn 0.8370 0.2569 -0.4832
vn 0.9664 0.2569 -0.0000
vn 0.9606 0.2778 -0.0000
vn 0.8319 0.2778 -0.4803
vn -0.8370 0.2569 0.4832
vn -0.9664 0.2569 -0.0000
vn -0.9606 0.2778 -0.0000
vn -0.8319 0.2778 0.4803
vn -0.8370 0.2569 -0.4832
vn -0.4832 0.2569 -0.8370
vn -0.4803 0.2778 -0.8319
vn -0.8319 0.2778 -0.4803
vn 0.4832 0.2569 -0.8370
vn 0.4803 0.2778 -0.8319
vn -0.4832 0.2569 0.8370
vn -0.4803 0.2778 0.8319
vn -0.0000 0.2569 0.9664
vn -0.0000 0.2778 0.9606
vn -0.0000 0.2569 -0.9664
vn -0.0000 0.2778 -0.9606
vn -0.0000 -0.2548 0.9670
vn 0.4835 -0.2548 0.8374
vn 0.8370 0.2569 0.4832
vn 0.8319 0.2778 0.4803
vn -0.9670 -0.2548 -0.0000
vn -0.8374 -0.2548 0.4835
vn -0.4835 -0.2548 0.8374
vn 0.0359 -0.9991 -0.0207
vn 0.0415 -0.9991 -0.0000
vn -0.0000 -1.0000 -0.0000
vn -0.0359 -0.9991 0.0207
vn -0.0415 -0.9991 -0.0000
vn -0.0359 -0.9991 -0.0207
vn -0.0207 -0.9991 -0.0359
vn 0.0207 -0.9991 -0.0359
vn -0.0207 -0.9991 0.0359
vn -0.0000 -0.9991 0.0415
vn -0.0000 -0.9991 -0.0415
vn 0.2524 -0.8633 0.4371
vn -0.0000 -0.8633 0.5048
vn -0.0000 -0.2344 0.9721
vn 0.4861 -0.2344 0.8419
vn 0.0359 -0.9991 0.0207
vn -0.4371 -0.8633 0.2524
vn -0.5048 -0.8633 -0.0000
vn -0.9721 -0.2344 -0.0000
vn -0.8419 -0.2344 0.4861
vn 0.5048 -0.8633 -0.0000
vn 0.4371 -0.8633 0.2524
vn 0.8419 -0.2344 0.4861
vn 0.9721 -0.2344 -0.0000
vn -0.2524 -0.8633 0.4371
vn -0.4861 -0.2344 0.8419
vn -0.2524 -0.8633 -0.4371
vn -0.0000 -0.8633 -0.5048
vn -0.0000 -0.2344 -0.9721
vn -0.4861 -0.2344 -0.8419
vn 0.4371 -0.8633 -0.2524
vn 0.8419 -0.2344 -0.4861
vn -0.4371 -0.8633 -0.2524
vn -0.8419 -0.2344 -0.4861
vn 0.2524 -0.8633 -0.4371
vn 0.4861 -0.2344 -0.8419
vn 0.0207 -0.9991 0.0359
vn 0.4835 -0.2548 -0.8374
vn -0.0000 -0.2548 -0.9670
vn -0.8374 -0.2548 -0.4835
vn 0.8374 -0.2548 0.4835
vn 0.8374 -0.2548 -0.4835
vn -0.4835 -0.2548 -0.8374
vn 0.4832 0.2569 0.8370
vn 0.4803 0.2778 0.8319
vn 0.9670 -0.2548 -0.0000
vn 0.2247 0.8933 0.3892
vn -0.0000 0.8933 0.4494
vn 0.3892 0.8933 0.2247
vn 0.4494 0.8933 -0.0000
vn 0.3892 0.8933 -0.2247
vn 0.2247 0.8933 -0.3892
vn -0.0000 0.8933 -0.4494
vn -0.2247 0.8933 -0.3892
vn -0.3892 0.8933 -0.2247
vn -0.4494 0.8933 -0.0000
vn -0.2247 0.8933 0.3892
vn -0.3892 0.8933 0.2247
vn 0.5000 0.0013 0.8660
vn -0.0000 0.0013 1.0000
vn 0.8660 0.0013 0.5000
vn 1.0000 0.0013 -0.0000
vn 0.8660 0.0013 -0.5000
vn 0.5000 0.0013 -0.8660
vn -0.0000 0.0013 -1.0000
vn -0.5000 0.0013 -0.8660
vn -0.8660 0.0013 -0.5000
vn -1.0000 0.0013 -0.0000
vn -0.5000 0.0013 0.8660
vn -0.8660 0.0013 0.5000
vn 0.1681 -0.9418 0.2913
vn -0.0000 -0.9418 0.3363
vn 0.3993 -0.6018 0.6917
vn -0.0000 -0.6018 0.7987
vn 0.2912 -0.9418 0.1682
vn 0.6917 -0.6018 0.3993
vn 0.3363 -0.9418 -0.0000
vn 0.7987 -0.6018 -0.0000
vn 0.2912 -0.9418 -0.1682
vn 0.6917 -0.6018 -0.3993
vn 0.1682 -0.9418 -0.2913
vn 0.3993 -0.6018 -0.6917
vn -0.0000 -0.9418 -0.3363
vn -0.0000 -0.6018 -0.7987
vn -0.1681 -0.9418 -0.2913
vn -0.3993 -0.6018 -0.6917
vn -0.2912 -0.9418 -0.1682
vn -0.6917 -0.6018 -0.3993
vn -0.3363 -0.9418 -0.0000
vn -0.7987 -0.6018 -0.0000
vn -0.1682 -0.9418 0.2913
vn -0.3993 -0.6018 0.6917
vn -0.2912 -0.9418 0.1682
vn -0.6917 -0.6018 0.3993
vn 0.3189 -0.7703 -0.5523
vn 0.5523 -0.7703 -0.3189
vn -0.0000 -0.7703 0.6377
vn -0.3189 -0.7703 0.5523
vn 0.5523 -0.7703 0.3189
vn 0.3189 -0.7703 0.5523
vn -0.6377 -0.7703 -0.0000
vn -0.5523 -0.7703 -0.3189
vn -0.0000 -0.7703 -0.6377
vn 0.6377 -0.7703 -0.0000
vn -0.5523 -0.7703 0.3189
vn -0.3189 -0.7703 -0.5523
vt 0.000000 0.000000
s 1
usemtl Metal
f 147/1/1 18/1/2 17/1/3 146/1/4
f 149/1/5 13/1/6 23/1/7 148/1/8
f 151/1/9 15/1/10 14/1/11 150/1/12
f 153/1/13 22/1/14 21/1/15 152/1/16
f 154/1/17 19/1/18 18/1/2 147/1/1
f 155/1/19 16/1/20 15/1/10 151/1/9
f 157/1/21 36/1/22 22/1/14 153/1/13
f 156/1/23 20/1/24 19/1/18 154/1/17
f 146/1/4 17/1/3 16/1/20 155/1/19
f 148/1/8 23/1/7 36/1/22 157/1/21
f 150/1/12 14/1/11 13/1/6 149/1/5
f 152/1/16 21/1/15 20/1/24 156/1/23
f 75/1/25 46/1/26 44/1/27 72/1/28
f 96/1/29 60/1/30 56/1/31 90/1/32
f 87/1/33 54/1/34 52/1/35 84/1/36
f 78/1/37 48/1/38 46/1/26 75/1/25
f 92/1/39 58/1/40 60/1/30 96/1/29
f 62/1/41 38/1/42 58/1/40 92/1/39
f 90/1/32 56/1/31 54/1/34 87/1/33
f 81/1/43 50/1/44 48/1/38 78/1/37
f 14/1/11 65/1/45 63/1/46 13/1/6
f 72/1/28 44/1/27 42/1/47 69/1/48
f 36/1/22 95/1/49 89/1/50 22/1/14
f 84/1/36 52/1/35 50/1/44 81/1/43
f 13/1/6 63/1/46 93/1/51 23/1/7
f 23/1/7 93/1/51 95/1/49 36/1/22
f 115/1/52 24/1/53 111/1/54
f 143/1/55 24/1/53 135/1/56
f 131/1/57 24/1/53 127/1/58
f 119/1/59 24/1/53 115/1/52
f 138/1/60 24/1/53 143/1/55
f 98/1/61 24/1/53 138/1/60
f 135/1/56 24/1/53 131/1/57
f 123/1/62 24/1/53 119/1/59
f 33/1/63 102/1/64 99/1/65 32/1/66
f 111/1/54 24/1/53 107/1/67
f 37/1/68 142/1/69 134/1/70 27/1/71
f 127/1/58 24/1/53 123/1/62
f 26/1/72 110/1/73 106/1/74 25/1/75
f 31/1/76 139/1/77 142/1/69 37/1/68
f 29/1/78 126/1/79 122/1/80 28/1/81
f 30/1/82 114/1/83 110/1/73 26/1/72
f 32/1/66 99/1/65 139/1/77 31/1/76
f 34/1/84 130/1/85 126/1/79 29/1/78
f 35/1/86 118/1/87 114/1/83 30/1/82
f 107/1/67 24/1/53 103/1/88
f 25/1/75 106/1/74 102/1/64 33/1/63
f 27/1/71 134/1/70 130/1/85 34/1/84
f 28/1/81 122/1/80 118/1/87 35/1/86
f 19/1/18 80/1/89 77/1/90 18/1/2
f 22/1/14 89/1/50 86/1/91 21/1/15
f 15/1/10 68/1/92 65/1/45 14/1/11
f 18/1/2 77/1/90 74/1/93 17/1/3
f 21/1/15 86/1/91 83/1/94 20/1/24
f 69/1/48 42/1/47 40/1/95 66/1/96
f 17/1/3 74/1/93 71/1/97 16/1/20
f 20/1/24 83/1/94 80/1/89 19/1/18
f 16/1/20 71/1/97 68/1/92 15/1/10
f 41/1/98 39/1/99 38/1/42 40/1/95
f 43/1/100 41/1/98 40/1/95 42/1/47
f 45/1/101 43/1/100 42/1/47 44/1/27
f 47/1/102 45/1/101 44/1/27 46/1/26
f 49/1/103 47/1/102 46/1/26 48/1/38
f 51/1/104 49/1/103 48/1/38 50/1/44
f 53/1/105 51/1/104 50/1/44 52/1/35
f 55/1/106 53/1/105 52/1/35 54/1/34
f 57/1/107 55/1/106 54/1/34 56/1/31
f 39/1/99 59/1/108 58/1/40 38/1/42
f 61/1/109 57/1/107 56/1/31 60/1/30
f 59/1/108 61/1/109 60/1/30 58/1/40
f 66/1/96 62/1/41 64/1/110 67/1/111
f 67/1/111 64/1/110 63/1/46 65/1/45
f 69/1/48 66/1/96 67/1/111 70/1/112
f 70/1/112 67/1/111 65/1/45 68/1/92
f 72/1/28 69/1/48 70/1/112 73/1/113
f 73/1/113 70/1/112 68/1/92 71/1/97
f 75/1/25 72/1/28 73/1/113 76/1/114
f 76/1/114 73/1/113 71/1/97 74/1/93
f 78/1/37 75/1/25 76/1/114 79/1/115
f 79/1/115 76/1/114 74/1/93 77/1/90
f 81/1/43 78/1/37 79/1/115 82/1/116
f 82/1/116 79/1/115 77/1/90 80/1/89
f 84/1/36 81/1/43 82/1/116 85/1/117
f 85/1/117 82/1/116 80/1/89 83/1/94
f 87/1/33 84/1/36 85/1/117 88/1/118
f 88/1/118 85/1/117 83/1/94 86/1/91
f 90/1/32 87/1/33 88/1/118 91/1/119
f 91/1/119 88/1/118 86/1/91 89/1/50
f 62/1/41 92/1/39 94/1/120 64/1/110
f 64/1/110 94/1/120 93/1/51 63/1/46
f 96/1/29 90/1/32 91/1/119 97/1/121
f 97/1/121 91/1/119 89/1/50 95/1/49
f 92/1/39 96/1/29 97/1/121 94/1/120
f 94/1/120 97/1/121 95/1/49 93/1/51
f 66/1/96 40/1/95 38/1/42 62/1/41
f 103/1/88 98/1/61 100/1/122 105/1/123
f 105/1/123 100/1/122 101/1/124 104/1/125
f 104/1/125 101/1/124 99/1/65 102/1/64
f 107/1/67 103/1/88 105/1/123 109/1/126
f 109/1/126 105/1/123 104/1/125 108/1/127
f 108/1/127 104/1/125 102/1/64 106/1/74
f 111/1/54 107/1/67 109/1/126 113/1/128
f 113/1/128 109/1/126 108/1/127 112/1/129
f 112/1/129 108/1/127 106/1/74 110/1/73
f 115/1/52 111/1/54 113/1/128 117/1/130
f 117/1/130 113/1/128 112/1/129 116/1/131
f 116/1/131 112/1/129 110/1/73 114/1/83
f 119/1/59 115/1/52 117/1/130 121/1/132
f 121/1/132 117/1/130 116/1/131 120/1/133
f 120/1/133 116/1/131 114/1/83 118/1/87
f 123/1/62 119/1/59 121/1/132 125/1/134
f 125/1/134 121/1/132 120/1/133 124/1/135
f 124/1/135 120/1/133 118/1/87 122/1/80
f 127/1/58 123/1/62 125/1/134 129/1/136
f 129/1/136 125/1/134 124/1/135 128/1/137
f 128/1/137 124/1/135 122/1/80 126/1/79
f 131/1/57 127/1/58 129/1/136 133/1/138
f 133/1/138 129/1/136 128/1/137 132/1/139
f 132/1/139 128/1/137 126/1/79 130/1/85
f 135/1/56 131/1/57 133/1/138 137/1/140
f 137/1/140 133/1/138 132/1/139 136/1/141
f 136/1/141 132/1/139 130/1/85 134/1/70
f 98/1/61 138/1/60 140/1/142 100/1/122
f 100/1/122 140/1/142 141/1/143 101/1/124
f 101/1/124 141/1/143 139/1/77 99/1/65
f 143/1/55 135/1/56 137/1/140 145/1/144
f 145/1/144 137/1/140 136/1/141 144/1/145
f 144/1/145 136/1/141 134/1/70 142/1/69
f 138/1/60 143/1/55 145/1/144 140/1/142
f 140/1/142 145/1/144 144/1/145 141/1/143
f 141/1/143 144/1/145 142/1/69 139/1/77
f 103/1/88 24/1/53 98/1/61
f 169/1/16 152/1/16 156/1/23 164/1/23
f 168/1/12 150/1/12 149/1/5 159/1/5
f 167/1/8 148/1/8 157/1/21 165/1/21
f 166/1/4 146/1/4 155/1/19 163/1/19
f 164/1/23 156/1/23 154/1/17 162/1/17
f 165/1/21 157/1/21 153/1/13 161/1/13
f 163/1/19 155/1/19 151/1/9 160/1/9
f 162/1/17 154/1/17 147/1/1 158/1/1
f 161/1/13 153/1/13 152/1/16 169/1/16
f 160/1/9 151/1/9 150/1/12 168/1/12
f 159/1/5 149/1/5 148/1/8 167/1/8
f 158/1/1 147/1/1 146/1/4 166/1/4
f 6/1/146 158/1/1 166/1/4 5/1/147
f 1/1/148 159/1/5 167/1/8 12/1/149
f 3/1/150 160/1/9 168/1/12 2/1/151
f 10/1/152 161/1/13 169/1/16 9/1/153
f 7/1/154 162/1/17 158/1/1 6/1/146
f 4/1/155 163/1/19 160/1/9 3/1/150
f 11/1/156 165/1/21 161/1/13 10/1/152
f 8/1/157 164/1/23 162/1/17 7/1/154
f 5/1/147 166/1/4 163/1/19 4/1/155
f 12/1/149 167/1/8 165/1/21 11/1/156
f 2/1/151 168/1/12 159/1/5 1/1/148
f 9/1/153 169/1/16 164/1/23 8/1/157
f 316/1/158 315/1/159 186/1/160 187/1/161
f 318/1/162 317/1/163 192/1/164 182/1/165
f 320/1/166 319/1/167 183/1/168 184/1/169
f 322/1/170 321/1/171 190/1/172 191/1/173
f 323/1/174 316/1/158 187/1/161 188/1/175
f 324/1/176 320/1/166 184/1/169 185/1/177
f 326/1/178 322/1/170 191/1/173 205/1/179
f 325/1/180 323/1/174 188/1/175 189/1/181
f 315/1/159 324/1/176 185/1/177 186/1/160
f 317/1/163 326/1/178 205/1/179 192/1/164
f 319/1/167 318/1/162 182/1/165 183/1/168
f 321/1/171 325/1/180 189/1/181 190/1/172
f 244/1/182 241/1/183 213/1/184 215/1/185
f 265/1/186 259/1/187 225/1/188 229/1/189
f 256/1/190 253/1/191 221/1/192 223/1/193
f 247/1/194 244/1/182 215/1/185 217/1/195
f 261/1/196 265/1/186 229/1/189 227/1/197
f 231/1/198 261/1/196 227/1/197 207/1/199
f 259/1/187 256/1/190 223/1/193 225/1/188
f 250/1/200 247/1/194 217/1/195 219/1/201
f 183/1/168 182/1/165 232/1/202 234/1/203
f 241/1/183 238/1/204 211/1/205 213/1/184
f 205/1/179 191/1/173 258/1/206 264/1/207
f 253/1/191 250/1/200 219/1/201 221/1/192
f 182/1/165 192/1/164 262/1/208 232/1/202
f 192/1/164 205/1/179 264/1/207 262/1/208
f 284/1/209 280/1/210 193/1/211
f 312/1/212 304/1/213 193/1/211
f 300/1/214 296/1/215 193/1/211
f 288/1/216 284/1/209 193/1/211
f 307/1/217 312/1/212 193/1/211
f 267/1/218 307/1/217 193/1/211
f 304/1/213 300/1/214 193/1/211
f 292/1/219 288/1/216 193/1/211
f 202/1/220 201/1/221 268/1/222 271/1/223
f 280/1/210 276/1/224 193/1/211
f 206/1/225 196/1/226 303/1/227 311/1/228
f 296/1/215 292/1/219 193/1/211
f 195/1/229 194/1/230 275/1/231 279/1/232
f 200/1/233 206/1/225 311/1/228 308/1/234
f 198/1/235 197/1/236 291/1/237 295/1/238
f 199/1/239 195/1/229 279/1/232 283/1/240
f 201/1/221 200/1/233 308/1/234 268/1/222
f 203/1/241 198/1/235 295/1/238 299/1/242
f 204/1/243 199/1/239 283/1/240 287/1/244
f 276/1/224 272/1/245 193/1/211
f 194/1/230 202/1/220 271/1/223 275/1/231
f 196/1/226 203/1/241 299/1/242 303/1/227
f 197/1/236 204/1/243 287/1/244 291/1/237
f 188/1/175 187/1/161 246/1/246 249/1/247
f 191/1/173 190/1/172 255/1/248 258/1/206
f 184/1/169 183/1/168 234/1/203 237/1/249
f 187/1/161 186/1/160 243/1/250 246/1/246
f 190/1/172 189/1/181 252/1/251 255/1/248
f 238/1/204 235/1/252 209/1/253 211/1/205
f 186/1/160 185/1/177 240/1/254 243/1/250
f 189/1/181 188/1/175 249/1/247 252/1/251
f 185/1/177 184/1/169 237/1/249 240/1/254
f 210/1/255 209/1/253 207/1/199 208/1/256
f 212/1/257 211/1/205 209/1/253 210/1/255
f 214/1/258 213/1/184 211/1/205 212/1/257
f 216/1/259 215/1/185 213/1/184 214/1/258
f 218/1/260 217/1/195 215/1/185 216/1/259
f 220/1/261 219/1/201 217/1/195 218/1/260
f 222/1/262 221/1/192 219/1/201 220/1/261
f 224/1/263 223/1/193 221/1/192 222/1/262
f 226/1/264 225/1/188 223/1/193 224/1/263
f 208/1/256 207/1/199 227/1/197 228/1/265
f 230/1/266 229/1/189 225/1/188 226/1/264
f 228/1/265 227/1/197 229/1/189 230/1/266
f 235/1/252 236/1/267 233/1/268 231/1/198
f 236/1/267 234/1/203 232/1/202 233/1/268
f 238/1/204 239/1/269 236/1/267 235/1/252
f 239/1/269 237/1/249 234/1/203 236/1/267
f 241/1/183 242/1/270 239/1/269 238/1/204
f 242/1/270 240/1/254 237/1/249 239/1/269
f 244/1/182 245/1/271 242/1/270 241/1/183
f 245/1/271 243/1/250 240/1/254 242/1/270
f 247/1/194 248/1/272 245/1/271 244/1/182
f 248/1/272 246/1/246 243/1/250 245/1/271
f 250/1/200 251/1/273 248/1/272 247/1/194
f 251/1/273 249/1/247 246/1/246 248/1/272
f 253/1/191 254/1/274 251/1/273 250/1/200
f 254/1/274 252/1/251 249/1/247 251/1/273
f 256/1/190 257/1/275 254/1/274 253/1/191
f 257/1/275 255/1/248 252/1/251 254/1/274
f 259/1/187 260/1/276 257/1/275 256/1/190
f 260/1/276 258/1/206 255/1/248 257/1/275
f 231/1/198 233/1/268 263/1/277 261/1/196
f 233/1/268 232/1/202 262/1/208 263/1/277
f 265/1/186 266/1/278 260/1/276 259/1/187
f 266/1/278 264/1/207 258/1/206 260/1/276
f 261/1/196 263/1/277 266/1/278 265/1/186
f 263/1/277 262/1/208 264/1/207 266/1/278
f 235/1/252 231/1/198 207/1/199 209/1/253
f 272/1/245 274/1/279 269/1/280 267/1/218
f 274/1/279 273/1/281 270/1/282 269/1/280
f 273/1/281 271/1/223 268/1/222 270/1/282
f 276/1/224 278/1/283 274/1/279 272/1/245
f 278/1/283 277/1/284 273/1/281 274/1/279
f 277/1/284 275/1/231 271/1/223 273/1/281
f 280/1/210 282/1/285 278/1/283 276/1/224
f 282/1/285 281/1/286 277/1/284 278/1/283
f 281/1/286 279/1/232 275/1/231 277/1/284
f 284/1/209 286/1/287 282/1/285 280/1/210
f 286/1/287 285/1/288 281/1/286 282/1/285
f 285/1/288 283/1/240 279/1/232 281/1/286
f 288/1/216 290/1/289 286/1/287 284/1/209
f 290/1/289 289/1/290 285/1/288 286/1/287
f 289/1/290 287/1/244 283/1/240 285/1/288
f 292/1/219 294/1/291 290/1/289 288/1/216
f 294/1/291 293/1/292 289/1/290 290/1/289
f 293/1/292 291/1/237 287/1/244 289/1/290
f 296/1/215 298/1/293 294/1/291 292/1/219
f 298/1/293 297/1/294 293/1/292 294/1/291
f 297/1/294 295/1/238 291/1/237 293/1/292
f 300/1/214 302/1/295 298/1/293 296/1/215
f 302/1/295 301/1/296 297/1/294 298/1/293
f 301/1/296 299/1/242 295/1/238 297/1/294
f 304/1/213 306/1/297 302/1/295 300/1/214
f 306/1/297 305/1/298 301/1/296 302/1/295
f 305/1/298 303/1/227 299/1/242 301/1/296
f 267/1/218 269/1/280 309/1/299 307/1/217
f 269/1/280 270/1/282 310/1/300 309/1/299
f 270/1/282 268/1/222 308/1/234 310/1/300
f 312/1/212 314/1/301 306/1/297 304/1/213
f 314/1/301 313/1/302 305/1/298 306/1/297
f 313/1/302 311/1/228 303/1/227 305/1/298
f 307/1/217 309/1/299 314/1/301 312/1/212
f 309/1/299 310/1/300 313/1/302 314/1/301
f 310/1/300 308/1/234 311/1/228 313/1/302
f 272/1/245 267/1/218 193/1/211
f 338/1/9 333/1/12 325/1/180 321/1/171
f 337/1/23 328/1/17 318/1/162 319/1/167
f 336/1/1 334/1/4 326/1/178 317/1/163
f 335/1/21 332/1/13 324/1/176 315/1/159
f 333/1/12 331/1/5 323/1/174 325/1/180
f 334/1/4 330/1/19 322/1/170 326/1/178
f 332/1/13 329/1/16 320/1/166 324/1/176
f 331/1/5 327/1/8 316/1/158 323/1/174
f 330/1/19 338/1/9 321/1/171 322/1/170
f 329/1/16 337/1/23 319/1/167 320/1/166
f 328/1/17 336/1/1 317/1/163 318/1/162
f 327/1/8 335/1/21 315/1/159 316/1/158
f 175/1/303 174/1/304 335/1/21 327/1/8
f 170/1/305 181/1/306 336/1/1 328/1/17
f 172/1/307 171/1/308 337/1/23 329/1/16
f 179/1/309 178/1/310 338/1/9 330/1/19
f 176/1/311 175/1/303 327/1/8 331/1/5
f 173/1/312 172/1/307 329/1/16 332/1/13
f 180/1/313 179/1/309 330/1/19 334/1/4
f 177/1/314 176/1/311 331/1/5 333/1/12
f 174/1/304 173/1/312 332/1/13 335/1/21
f 181/1/306 180/1/313 334/1/4 336/1/1
f 171/1/308 170/1/305 328/1/17 337/1/23
f 178/1/310 177/1/314 333/1/12 338/1/9
f 2/1/151 1/1/148 170/1/305 171/1/308
f 3/1/150 2/1/151 171/1/308 172/1/307
f 4/1/155 3/1/150 172/1/307 173/1/312
f 5/1/147 4/1/155 173/1/312 174/1/304
f 6/1/146 5/1/147 174/1/304 175/1/303
f 7/1/154 6/1/146 175/1/303 176/1/311
f 8/1/157 7/1/154 176/1/311 177/1/314
f 9/1/153 8/1/157 177/1/314 178/1/310
f 10/1/152 9/1/153 178/1/310 179/1/309
f 11/1/156 10/1/152 179/1/309 180/1/313
f 12/1/149 11/1/156 180/1/313 181/1/306
f 1/1/148 12/1/149 181/1/306 170/1/305
f 28/1/81 35/1/86 204/1/243 197/1/236
f 27/1/71 34/1/84 203/1/241 196/1/226
f 25/1/75 33/1/63 202/1/220 194/1/230
f 32/1/66 31/1/76 200/1/233 201/1/221
f 35/1/86 30/1/82 199/1/239 204/1/243
f 34/1/84 29/1/78 198/1/235 203/1/241
f 33/1/63 32/1/66 201/1/221 202/1/220
f 30/1/82 26/1/72 195/1/229 199/1/239
f 29/1/78 28/1/81 197/1/236 198/1/235
f 26/1/72 25/1/75 194/1/230 195/1/229
f 31/1/76 37/1/68 206/1/225 200/1/233
f 37/1/68 27/1/71 196/1/226 206/1/225
f 39/1/99 41/1/98 210/1/255 208/1/256
f 41/1/98 43/1/100 212/1/257 210/1/255
f 43/1/100 45/1/101 214/1/258 212/1/257
f 45/1/101 47/1/102 216/1/259 214/1/258
f 47/1/102 49/1/103 218/1/260 216/1/259
f 49/1/103 51/1/104 220/1/261 218/1/260
f 51/1/104 53/1/105 222/1/262 220/1/261
f 53/1/105 55/1/106 224/1/263 222/1/262
f 55/1/106 57/1/107 226/1/264 224/1/263
f 59/1/108 39/1/99 208/1/256 228/1/265
f 57/1/107 61/1/109 230/1/266 226/1/264
f 61/1/109 59/1/108 228/1/265 230/1/266
o Circle.001
v -0.429862 6.328890 -0.248181
v -0.496362 6.328890 -0.000000
v 0.496362 6.328890 -0.000000
v -0.000000 6.328890 0.496362
v 0.248181 6.328890 0.429862
v -0.429862 6.328890 0.248181
v 0.248181 6.328890 -0.429862
v -0.000000 6.328890 -0.496362
v -0.248181 6.328890 -0.429862
v 0.429862 6.328890 0.248181
v -0.248181 6.328890 0.429862
v 0.429862 6.328890 -0.248181
v 0.000000 2.926607 -1.017654
v 0.000000 2.896290 -1.017747
v -0.508827 2.926607 -0.881314
v -0.508873 2.896290 -0.881395
v -0.881314 2.926607 -0.508827
v -0.881395 2.896290 -0.508873
v -1.017654 2.926607 0.000000
v -1.017747 2.896290 0.000000
v -0.881314 2.926607 0.508827
v -0.881395 2.896290 0.508873
v -0.508827 2.926607 0.881314
v -0.508873 2.896290 0.881395
v 0.000000 2.926607 1.017654
v 0.000000 2.896290 1.017747
v 0.508827 2.926607 0.881314
v 0.508873 2.896290 0.881395
v 0.881314 2.926607 0.508827
v 0.881395 2.896290 0.508873
v 1.017654 2.926607 0.000000
v 1.017747 2.896290 0.000000
v 0.508827 2.926607 -0.881314
v 0.508873 2.896290 -0.881395
v 0.881314 2.926607 -0.508827
v 0.881395 2.896290 -0.508873
v -0.404181 6.324347 -0.233354
v -0.466708 6.324347 -0.000000
v 0.466708 6.324347 -0.000000
v -0.000000 6.324347 0.466708
v 0.233354 6.324347 0.404181
v -0.404181 6.324347 0.233354
v 0.233354 6.324347 -0.404181
v -0.000000 6.324347 -0.466708
v -0.233354 6.324347 -0.404181
v 0.404181 6.324347 0.233354
v -0.233354 6.324347 0.404181
v 0.404181 6.324347 -0.233354
v 0.000000 2.924311 -0.987742
v 0.000000 2.896198 -0.987747
v -0.493871 2.924311 -0.855409
v -0.493873 2.896198 -0.855414
v -0.855409 2.924311 -0.493871
v -0.855414 2.896198 -0.493874
v -0.987742 2.924311 0.000000
v -0.987747 2.896198 0.000000
v -0.855409 2.924311 0.493871
v -0.855414 2.896198 0.493874
v -0.493871 2.924311 0.855409
v -0.493873 2.896198 0.855414
v 0.000000 2.924311 0.987742
v 0.000000 2.896198 0.987747
v 0.493871 2.924311 0.855409
v 0.493873 2.896198 0.855414
v 0.855409 2.924311 0.493871
v 0.855414 2.896198 0.493874
v 0.987742 2.924311 0.000000
v 0.987747 2.896198 0.000000
v 0.493871 2.924311 -0.855409
v 0.493873 2.896198 -0.855414
v 0.855409 2.924311 -0.493871
v 0.855414 2.896198 -0.493874
vn 0.8635 0.0765 -0.4985
vn 0.5702 0.7527 -0.3292
vn 0.6584 0.7526 -0.0000
vn 0.9971 0.0765 -0.0000
vn 0.8635 0.0765 0.4985
vn 0.5702 0.7527 0.3292
vn 0.3292 0.7527 0.5702
vn 0.4985 0.0765 0.8635
vn -0.4985 0.0765 0.8635
vn -0.3292 0.7527 0.5702
vn -0.5702 0.7527 0.3292
vn -0.8635 0.0765 0.4985
vn 0.4985 0.0765 -0.8635
vn 0.3292 0.7527 -0.5702
vn -0.0000 0.0765 -0.9971
vn -0.0000 0.7526 -0.6584
vn -0.0000 0.0765 0.9971
vn -0.0000 0.7526 0.6584
vn -0.9971 0.0765 -0.0000
vn -0.6584 0.7526 -0.0000
vn -0.5702 0.7527 -0.3292
vn -0.8635 0.0765 -0.4985
vn -0.4985 0.0765 -0.8635
vn -0.0000 -0.6511 -0.7590
vn -0.3795 -0.6511 -0.6573
vn -0.6573 -0.6511 -0.3795
vn -0.7590 -0.6511 -0.0000
vn -0.6573 -0.6511 0.3795
vn -0.3795 -0.6511 0.6573
vn -0.0000 -0.6511 0.7590
vn 0.3795 -0.6511 0.6573
vn 0.6573 -0.6511 0.3795
vn 0.7590 -0.6511 -0.0000
vn 0.3795 -0.6511 -0.6573
vn 0.6573 -0.6511 -0.3795
vn -0.3292 0.7527 -0.5702
vn -0.8636 -0.0751 0.4986
vn -0.9972 -0.0751 -0.0000
vn -0.7561 0.6544 -0.0000
vn -0.6548 0.6544 0.3781
vn -0.8636 -0.0751 -0.4986
vn -0.4986 -0.0751 -0.8636
vn -0.3781 0.6544 -0.6548
vn -0.6548 0.6544 -0.3781
vn 0.4986 -0.0751 -0.8636
vn 0.8636 -0.0751 -0.4986
vn 0.6548 0.6544 -0.3781
vn 0.3781 0.6544 -0.6548
vn -0.4986 -0.0751 0.8636
vn -0.3781 0.6544 0.6548
vn -0.0000 -0.0751 0.9972
vn -0.0000 0.6544 0.7561
vn -0.0000 -0.0751 -0.9972
vn -0.0000 0.6544 -0.7561
vn 0.9972 -0.0751 -0.0000
vn 0.8636 -0.0751 0.4986
vn 0.6548 0.6544 0.3781
vn 0.7561 0.6544 -0.0000
vn 0.4986 -0.0751 0.8636
vn 0.3181 -0.7715 0.5510
vn -0.0000 -0.7715 0.6363
vn 0.5510 -0.7715 0.3181
vn 0.6363 -0.7715 -0.0000
vn 0.5510 -0.7715 -0.3181
vn 0.3181 -0.7715 -0.5510
vn -0.0000 -0.7715 -0.6363
vn -0.3181 -0.7715 -0.5510
vn -0.5510 -0.7715 -0.3181
vn -0.6363 -0.7715 -0.0000
vn -0.3181 -0.7715 0.5510
vn -0.5510 -0.7715 0.3181
vn 0.3781 0.6544 0.6548
vt 0.000000 0.000000
s 1
usemtl Glass
f 373/2/315 350/2/316 341/2/317 369/2/318
f 367/2/319 348/2/320 343/2/321 365/2/322
f 361/2/323 349/2/324 344/2/325 359/2/326
f 371/2/327 345/2/328 350/2/316 373/2/315
f 351/2/329 346/2/330 345/2/328 371/2/327
f 369/2/318 341/2/317 348/2/320 367/2/319
f 363/2/331 342/2/332 349/2/324 361/2/323
f 357/2/333 340/2/334 339/2/335 355/2/336
f 365/2/322 343/2/321 342/2/332 363/2/331
f 359/2/326 344/2/325 340/2/334 357/2/333
f 353/2/337 351/2/329 352/2/338 354/2/339
f 355/2/336 353/2/337 354/2/339 356/2/340
f 357/2/333 355/2/336 356/2/340 358/2/341
f 359/2/326 357/2/333 358/2/341 360/2/342
f 361/2/323 359/2/326 360/2/342 362/2/343
f 363/2/331 361/2/323 362/2/343 364/2/344
f 365/2/322 363/2/331 364/2/344 366/2/345
f 367/2/319 365/2/322 366/2/345 368/2/346
f 369/2/318 367/2/319 368/2/346 370/2/347
f 351/2/329 371/2/327 372/2/348 352/2/338
f 373/2/315 369/2/318 370/2/347 374/2/349
f 371/2/327 373/2/315 374/2/349 372/2/348
f 355/2/336 339/2/335 347/2/350 353/2/337
f 353/2/337 347/2/350 346/2/330 351/2/329
f 409/2/351 405/2/352 377/2/353 386/2/354
f 403/2/355 401/2/356 379/2/357 384/2/358
f 397/2/359 395/2/360 380/2/361 385/2/362
f 407/2/363 409/2/351 386/2/354 381/2/364
f 387/2/365 407/2/363 381/2/364 382/2/366
f 405/2/352 403/2/355 384/2/358 377/2/353
f 399/2/367 397/2/359 385/2/362 378/2/368
f 393/2/369 391/2/370 375/2/371 376/2/372
f 401/2/356 399/2/367 378/2/368 379/2/357
f 395/2/360 393/2/369 376/2/372 380/2/361
f 389/2/373 390/2/374 388/2/375 387/2/365
f 391/2/370 392/2/376 390/2/374 389/2/373
f 393/2/369 394/2/377 392/2/376 391/2/370
f 395/2/360 396/2/378 394/2/377 393/2/369
f 397/2/359 398/2/379 396/2/378 395/2/360
f 399/2/367 400/2/380 398/2/379 397/2/359
f 401/2/356 402/2/381 400/2/380 399/2/367
f 403/2/355 404/2/382 402/2/381 401/2/356
f 405/2/352 406/2/383 404/2/382 403/2/355
f 387/2/365 388/2/375 408/2/384 407/2/363
f 409/2/351 410/2/385 406/2/383 405/2/352
f 407/2/363 408/2/384 410/2/385 409/2/351
f 391/2/370 389/2/373 383/2/386 375/2/371
f 389/2/373 387/2/365 382/2/366 383/2/386
f 349/2/324 342/2/332 378/2/368 385/2/362
f 348/2/320 341/2/317 377/2/353 384/2/358
f 347/2/350 339/2/335 375/2/371 383/2/386
f 345/2/328 346/2/330 382/2/366 381/2/364
f 344/2/325 349/2/324 385/2/362 380/2/361
f 343/2/321 348/2/320 384/2/358 379/2/357
f 346/2/330 347/2/350 383/2/386 382/2/366
f 340/2/334 344/2/325 380/2/361 376/2/372
f 342/2/332 343/2/321 379/2/357 378/2/368
f 339/2/335 340/2/334 376/2/372 375/2/371
f 350/2/316 345/2/328 381/2/364 386/2/354
f 341/2/317 350/2/316 386/2/354 377/2/353
f 354/2/339 352/2/338 388/2/375 390/2/374
f 356/2/340 354/2/339 390/2/374 392/2/376
f 358/2/341 356/2/340 392/2/376 394/2/377
f 360/2/342 358/2/341 394/2/377 396/2/378
f 362/2/343 360/2/342 396/2/378 398/2/379
f 364/2/344 362/2/343 398/2/379 400/2/380
f 366/2/345 364/2/344 400/2/380 402/2/381
f 368/2/346 366/2/345 402/2/381 404/2/382
f 370/2/347 368/2/346 404/2/382 406/2/383
f 352/2/338 372/2/348 408/2/384 388/2/375
f 374/2/349 370/2/347 406/2/383 410/2/385
f 372/2/348 374/2/349 410/2/385 408/2/384
