<?xml version="1.0" encoding="utf-8"?>
<COLLADA xmlns="http://www.collada.org/2005/11/COLLADASchema" version="1.4.1" xmlns:xsi="http://www.w3.org/2001/XMLSchema-instance">
  <asset>
    <contributor>
      <author>Blender User</author>
      <authoring_tool>Blender 3.6.1 commit date:2023-07-17, commit time:12:50, hash:8bda729ef4dc</authoring_tool>
    </contributor>
    <created>2024-11-21T21:56:18</created>
    <modified>2024-11-21T21:56:18</modified>
    <unit name="meter" meter="1"/>
    <up_axis>Z_UP</up_axis>
  </asset>
  <library_cameras>
    <camera id="Camera-camera" name="Camera">
      <optics>
        <technique_common>
          <perspective>
            <xfov sid="xfov">39.59775</xfov>
            <aspect_ratio>1.777778</aspect_ratio>
            <znear sid="znear">0.1</znear>
            <zfar sid="zfar">100</zfar>
          </perspective>
        </technique_common>
      </optics>
      <extra>
        <technique profile="blender">
          <shiftx sid="shiftx" type="float">0</shiftx>
          <shifty sid="shifty" type="float">0</shifty>
          <dof_distance sid="dof_distance" type="float">10</dof_distance>
        </technique>
      </extra>
    </camera>
  </library_cameras>
  <library_lights>
    <light id="Light_003-light" name="Light.003">
      <technique_common>
        <point>
          <color sid="color">3952.5 3952.5 3952.5</color>
          <constant_attenuation>1</constant_attenuation>
          <linear_attenuation>0</linear_attenuation>
          <quadratic_attenuation>0.00111109</quadratic_attenuation>
        </point>
      </technique_common>
      <extra>
        <technique profile="blender">
          <type sid="type" type="int">0</type>
          <flag sid="flag" type="int">0</flag>
          <mode sid="mode" type="int">1</mode>
          <gamma sid="blender_gamma" type="float">1</gamma>
          <red sid="red" type="float">1</red>
          <green sid="green" type="float">1</green>
          <blue sid="blue" type="float">1</blue>
          <shadow_r sid="blender_shadow_r" type="float">0</shadow_r>
          <shadow_g sid="blender_shadow_g" type="float">0</shadow_g>
          <shadow_b sid="blender_shadow_b" type="float">0</shadow_b>
          <energy sid="blender_energy" type="float">3952.5</energy>
          <dist sid="blender_dist" type="float">29.99998</dist>
          <spotsize sid="spotsize" type="float">75</spotsize>
          <spotblend sid="spotblend" type="float">0.15</spotblend>
          <att1 sid="att1" type="float">0</att1>
          <att2 sid="att2" type="float">1</att2>
          <falloff_type sid="falloff_type" type="int">2</falloff_type>
          <clipsta sid="clipsta" type="float">0.04999995</clipsta>
          <clipend sid="clipend" type="float">30.002</clipend>
          <bias sid="bias" type="float">1</bias>
          <bufsize sid="bufsize" type="int">2880</bufsize>
          <samp sid="samp" type="int">3</samp>
          <buffers sid="buffers" type="int">1</buffers>
          <radius sid="radius" type="float">13.05</radius>
          <area_shape sid="area_shape" type="int">1</area_shape>
          <area_size sid="area_size" type="float">0.1</area_size>
          <area_sizey sid="area_sizey" type="float">0.1</area_sizey>
          <area_sizez sid="area_sizez" type="float">1</area_sizez>
        </technique>
      </extra>
    </light>
    <light id="Light_002-light" name="Light.002">
      <technique_common>
        <point>
          <color sid="color">3952.5 3952.5 3952.5</color>
          <constant_attenuation>1</constant_attenuation>
          <linear_attenuation>0</linear_attenuation>
          <quadratic_attenuation>0.00111109</quadratic_attenuation>
        </point>
      </technique_common>
      <extra>
        <technique profile="blender">
          <type sid="type" type="int">0</type>
          <flag sid="flag" type="int">0</flag>
          <mode sid="mode" type="int">1</mode>
          <gamma sid="blender_gamma" type="float">1</gamma>
          <red sid="red" type="float">1</red>
          <green sid="green" type="float">1</green>
          <blue sid="blue" type="float">1</blue>
          <shadow_r sid="blender_shadow_r" type="float">0</shadow_r>
          <shadow_g sid="blender_shadow_g" type="float">0</shadow_g>
          <shadow_b sid="blender_shadow_b" type="float">0</shadow_b>
          <energy sid="blender_energy" type="float">3952.5</energy>
          <dist sid="blender_dist" type="float">29.99998</dist>
          <spotsize sid="spotsize" type="float">75</spotsize>
          <spotblend sid="spotblend" type="float">0.15</spotblend>
          <att1 sid="att1" type="float">0</att1>
          <att2 sid="att2" type="float">1</att2>
          <falloff_type sid="falloff_type" type="int">2</falloff_type>
          <clipsta sid="clipsta" type="float">0.04999995</clipsta>
          <clipend sid="clipend" type="float">30.002</clipend>
          <bias sid="bias" type="float">1</bias>
          <bufsize sid="bufsize" type="int">2880</bufsize>
          <samp sid="samp" type="int">3</samp>
          <buffers sid="buffers" type="int">1</buffers>
          <radius sid="radius" type="float">13.05</radius>
          <area_shape sid="area_shape" type="int">1</area_shape>
          <area_size sid="area_size" type="float">0.1</area_size>
          <area_sizey sid="area_sizey" type="float">0.1</area_sizey>
          <area_sizez sid="area_sizez" type="float">1</area_sizez>
        </technique>
      </extra>
    </light>
    <light id="Light_001-light" name="Light.001">
      <technique_common>
        <point>
          <color sid="color">937.5 937.5 937.5</color>
          <constant_attenuation>1</constant_attenuation>
          <linear_attenuation>0</linear_attenuation>
          <quadratic_attenuation>0.00111109</quadratic_attenuation>
        </point>
      </technique_common>
      <extra>
        <technique profile="blender">
          <type sid="type" type="int">0</type>
          <flag sid="flag" type="int">0</flag>
          <mode sid="mode" type="int">1</mode>
          <gamma sid="blender_gamma" type="float">1</gamma>
          <red sid="red" type="float">1</red>
          <green sid="green" type="float">1</green>
          <blue sid="blue" type="float">1</blue>
          <shadow_r sid="blender_shadow_r" type="float">0</shadow_r>
          <shadow_g sid="blender_shadow_g" type="float">0</shadow_g>
          <shadow_b sid="blender_shadow_b" type="float">0</shadow_b>
          <energy sid="blender_energy" type="float">937.5</energy>
          <dist sid="blender_dist" type="float">29.99998</dist>
          <spotsize sid="spotsize" type="float">75</spotsize>
          <spotblend sid="spotblend" type="float">0.15</spotblend>
          <att1 sid="att1" type="float">0</att1>
          <att2 sid="att2" type="float">1</att2>
          <falloff_type sid="falloff_type" type="int">2</falloff_type>
          <clipsta sid="clipsta" type="float">0.04999995</clipsta>
          <clipend sid="clipend" type="float">30.002</clipend>
          <bias sid="bias" type="float">1</bias>
          <bufsize sid="bufsize" type="int">2880</bufsize>
          <samp sid="samp" type="int">3</samp>
          <buffers sid="buffers" type="int">1</buffers>
          <radius sid="radius" type="float">0.8700008</radius>
          <area_shape sid="area_shape" type="int">1</area_shape>
          <area_size sid="area_size" type="float">0.1</area_size>
          <area_sizey sid="area_sizey" type="float">0.1</area_sizey>
          <area_sizez sid="area_sizez" type="float">1</area_sizez>
        </technique>
      </extra>
    </light>
    <light id="Light-light" name="Light">
      <technique_common>
        <point>
          <color sid="color">3952.5 3952.5 3952.5</color>
          <constant_attenuation>1</constant_attenuation>
          <linear_attenuation>0</linear_attenuation>
          <quadratic_attenuation>0.00111109</quadratic_attenuation>
        </point>
      </technique_common>
      <extra>
        <technique profile="blender">
          <type sid="type" type="int">0</type>
          <flag sid="flag" type="int">0</flag>
          <mode sid="mode" type="int">1</mode>
          <gamma sid="blender_gamma" type="float">1</gamma>
          <red sid="red" type="float">1</red>
          <green sid="green" type="float">1</green>
          <blue sid="blue" type="float">1</blue>
          <shadow_r sid="blender_shadow_r" type="float">0</shadow_r>
          <shadow_g sid="blender_shadow_g" type="float">0</shadow_g>
          <shadow_b sid="blender_shadow_b" type="float">0</shadow_b>
          <energy sid="blender_energy" type="float">3952.5</energy>
          <dist sid="blender_dist" type="float">29.99998</dist>
          <spotsize sid="spotsize" type="float">75</spotsize>
          <spotblend sid="spotblend" type="float">0.15</spotblend>
          <att1 sid="att1" type="float">0</att1>
          <att2 sid="att2" type="float">1</att2>
          <falloff_type sid="falloff_type" type="int">2</falloff_type>
          <clipsta sid="clipsta" type="float">0.04999995</clipsta>
          <clipend sid="clipend" type="float">30.002</clipend>
          <bias sid="bias" type="float">1</bias>
          <bufsize sid="bufsize" type="int">2880</bufsize>
          <samp sid="samp" type="int">3</samp>
          <buffers sid="buffers" type="int">1</buffers>
          <radius sid="radius" type="float">13.05</radius>
          <area_shape sid="area_shape" type="int">1</area_shape>
          <area_size sid="area_size" type="float">0.1</area_size>
          <area_sizey sid="area_sizey" type="float">0.1</area_sizey>
          <area_sizez sid="area_sizez" type="float">1</area_sizez>
        </technique>
      </extra>
    </light>
  </library_lights>
  <library_effects>
    <effect id="Metal-effect">
      <profile_COMMON>
        <technique sid="common">
          <lambert>
            <emission>
              <color sid="emission">0 0 0 1</color>
            </emission>
            <diffuse>
              <color sid="diffuse">0.8 0.8 0.8 1</color>
            </diffuse>
            <reflectivity>
              <float sid="specular">0.8454545</float>
            </reflectivity>
            <index_of_refraction>
              <float sid="ior">1.45</float>
            </index_of_refraction>
          </lambert>
        </technique>
      </profile_COMMON>
    </effect>
    <effect id="Glass-effect">
      <profile_COMMON>
        <technique sid="common">
          <lambert>
            <emission>
              <color sid="emission">0 0 0 1</color>
            </emission>
            <diffuse>
              <color sid="diffuse">0.8 0.8 0.8 1</color>
            </diffuse>
            <index_of_refraction>
              <float sid="ior">0.05000019</float>
            </index_of_refraction>
          </lambert>
        </technique>
      </profile_COMMON>
    </effect>
  </library_effects>
  <library_images/>
  <library_materials>
    <material id="Metal-material" name="Metal">
      <instance_effect url="#Metal-effect"/>
    </material>
    <material id="Glass-material" name="Glass">
      <instance_effect url="#Glass-effect"/>
    </material>
  </library_materials>
  <library_geometries>
    <geometry id="Circle_001-mesh" name="Circle.001">
      <mesh>
        <source id="Circle_001-mesh-positions">
          <float_array id="Circle_001-mesh-positions-array" count="108">-0.4298623 0.2481811 6.32889 -0.4963623 0 6.32889 0.4963623 0 6.32889 0 -0.4963623 6.32889 0.2481811 -0.4298623 6.32889 -0.4298623 -0.2481811 6.32889 0.2481811 0.4298623 6.32889 0 0.4963623 6.32889 -0.2481811 0.4298623 6.32889 0.4298623 -0.2481811 6.32889 -0.2481811 -0.4298623 6.32889 0.4298623 0.2481811 6.32889 0 1.017654 2.926607 0 1.017747 2.89629 -0.5088269 0.8813138 2.926607 -0.5088735 0.8813945 2.89629 -0.8813138 0.5088269 2.926607 -0.8813945 0.5088735 2.89629 -1.017654 0 2.926607 -1.017747 0 2.89629 -0.8813138 -0.5088269 2.926607 -0.8813945 -0.5088735 2.89629 -0.5088269 -0.8813138 2.926607 -0.5088735 -0.8813945 2.89629 0 -1.017654 2.926607 0 -1.017747 2.89629 0.5088269 -0.8813138 2.926607 0.5088735 -0.8813945 2.89629 0.8813138 -0.5088269 2.926607 0.8813945 -0.5088735 2.89629 1.017654 0 2.926607 1.017747 0 2.89629 0.5088269 0.8813138 2.926607 0.5088735 0.8813945 2.89629 0.8813138 0.5088269 2.926607 0.8813945 0.5088735 2.89629</float_array>
          <technique_common>
            <accessor source="#Circle_001-mesh-positions-array" count="36" stride="3">
              <param name="X" type="float"/>
              <param name="Y" type="float"/>
              <param name="Z" type="float"/>
            </accessor>
          </technique_common>
        </source>
        <source id="Circle_001-mesh-normals">
          <float_array id="Circle_001-mesh-normals-array" count="108">0.8560356 0.4942327 0.1514507 0.9970664 0 0.07654303 0.8634859 0.4985305 0.07654678 0.8560357 -0.4942324 0.1514506 0.498534 -0.8634839 0.0765472 0.8634846 -0.498533 0.07654601 -0.4942322 -0.8560358 0.1514506 -0.8634859 -0.4985305 0.07654678 -0.4985329 -0.8634846 0.07654672 0.4942322 0.8560358 0.1514506 0.4985329 0.8634846 0.07654672 -2.96809e-7 0.9884648 0.1514506 1.37662e-7 0.9970663 0.07654356 0.9884648 0 0.1514506 2.87235e-7 -0.9884648 0.1514507 -1.34547e-7 -0.9970663 0.07654356 -0.9884648 0 0.1514507 -0.8634846 0.4985331 0.07654601 -0.9970664 0 0.07654303 0.4942328 -0.8560355 0.1514506 -0.8560356 -0.4942327 0.1514507 -0.4985341 0.8634839 0.0765472 0 0.9999953 0.003068149 -0.5 0.86602 0.003075301 -0.8660215 0.4999974 0.003072917 -0.9999953 0 0.003067135 -0.8660243 -0.4999926 0.003074526 -0.4999974 -0.8660215 0.003074407 0 -0.9999953 0.003068149 0.5 -0.86602 0.003075301 0.8660215 -0.4999974 0.003072917 0.9999953 0 0.003067135 0.8660243 0.4999926 0.003074526 0.4999974 0.8660215 0.003074407 -0.8560357 0.4942323 0.1514506 -0.4942328 0.8560355 0.1514506</float_array>
          <technique_common>
            <accessor source="#Circle_001-mesh-normals-array" count="36" stride="3">
              <param name="X" type="float"/>
              <param name="Y" type="float"/>
              <param name="Z" type="float"/>
            </accessor>
          </technique_common>
        </source>
        <source id="Circle_001-mesh-map-0">
          <float_array id="Circle_001-mesh-map-0-array" count="288">0 0 0 0 0 0 0 0 0 0 0 0 0 0 0 0 0 0 0 0 0 0 0 0 0 0 0 0 0 0 0 0 0 0 0 0 0 0 0 0 0 0 0 0 0 0 0 0 0 0 0 0 0 0 0 0 0 0 0 0 0 0 0 0 0 0 0 0 0 0 0 0 0 0 0 0 0 0 0 0 0 0 0 0 0 0 0 0 0 0 0 0 0 0 0 0 0 0 0 0 0 0 0 0 0 0 0 0 0 0 0 0 0 0 0 0 0 0 0 0 0 0 0 0 0 0 0 0 0 0 0 0 0 0 0 0 0 0 0 0 0 0 0 0 0 0 0 0 0 0 0 0 0 0 0 0 0 0 0 0 0 0 0 0 0 0 0 0 0 0 0 0 0 0 0 0 0 0 0 0 0 0 0 0 0 0 0 0 0 0 0 0 0 0 0 0 0 0 0 0 0 0 0 0 0 0 0 0 0 0 0 0 0 0 0 0 0 0 0 0 0 0 0 0 0 0 0 0 0 0 0 0 0 0 0 0 0 0 0 0 0 0 0 0 0 0 0 0 0 0 0 0 0 0 0 0 0 0 0 0 0 0 0 0 0 0 0 0 0 0 0 0 0 0 0 0 0 0 0 0 0 0 0 0 0 0 0 0</float_array>
          <technique_common>
            <accessor source="#Circle_001-mesh-map-0-array" count="144" stride="2">
              <param name="S" type="float"/>
              <param name="T" type="float"/>
            </accessor>
          </technique_common>
        </source>
        <vertices id="Circle_001-mesh-vertices">
          <input semantic="POSITION" source="#Circle_001-mesh-positions"/>
        </vertices>
        <triangles material="Glass-material" count="48">
          <input semantic="VERTEX" source="#Circle_001-mesh-vertices" offset="0"/>
          <input semantic="NORMAL" source="#Circle_001-mesh-normals" offset="1"/>
          <input semantic="TEXCOORD" source="#Circle_001-mesh-map-0" offset="2" set="0"/>
          <p>11 0 0 30 1 1 34 2 2 9 3 3 26 4 4 28 5 5 10 6 6 20 7 7 22 8 8 6 9 9 34 2 10 32 10 11 7 11 12 32 10 13 12 12 14 2 13 15 28 5 16 30 1 17 3 14 18 22 8 19 24 15 20 1 16 21 16 17 22 18 18 23 4 19 24 24 15 25 26 4 26 5 20 27 18 18 28 20 7 29 14 21 30 13 22 31 15 23 32 14 21 33 17 24 34 16 17 35 16 17 36 19 25 37 18 18 38 20 7 39 19 25 40 21 26 41 20 7 42 23 27 43 22 8 44 22 8 45 25 28 46 24 15 47 26 4 48 25 28 49 27 29 50 26 4 51 29 30 52 28 5 53 28 5 54 31 31 55 30 1 56 32 10 57 13 22 58 12 12 59 34 2 60 31 31 61 35 32 62 34 2 63 33 33 64 32 10 65 0 34 66 14 21 67 16 17 68 8 35 69 12 12 70 14 21 71 11 0 72 2 13 73 30 1 74 9 3 75 4 19 76 26 4 77 10 6 78 5 20 79 20 7 80 6 9 81 11 0 82 34 2 83 7 11 84 6 9 85 32 10 86 2 13 87 9 3 88 28 5 89 3 14 90 10 6 91 22 8 92 1 16 93 0 34 94 16 17 95 4 19 96 3 14 97 24 15 98 5 20 99 1 16 100 18 18 101 14 21 102 12 12 103 13 22 104 14 21 105 15 23 106 17 24 107 16 17 108 17 24 109 19 25 110 20 7 111 18 18 112 19 25 113 20 7 114 21 26 115 23 27 116 22 8 117 23 27 118 25 28 119 26 4 120 24 15 121 25 28 122 26 4 123 27 29 124 29 30 125 28 5 126 29 30 127 31 31 128 32 10 129 33 33 130 13 22 131 34 2 132 30 1 133 31 31 134 34 2 135 35 32 136 33 33 137 0 34 138 8 35 139 14 21 140 8 35 141 7 11 142 12 12 143</p>
        </triangles>
      </mesh>
    </geometry>
    <geometry id="Circle-mesh" name="Circle">
      <mesh>
        <source id="Circle-mesh-positions">
          <float_array id="Circle-mesh-positions-array" count="507">0 1 0 -0.5 0.8660254 0 -0.8660254 0.5 0 -1 0 0 -0.8660254 -0.5 0 -0.5 -0.8660254 0 0 -1 0 0.5 -0.8660254 0 0.8660254 -0.5 0 1 0 0 0.8660254 0.5 0 0.5 0.8660254 0 0 1 0.04628628 -0.5 0.8660254 0.04628628 -0.8660254 0.5 0.04628628 -1 0 0.04628628 -0.8660254 -0.5 0.04628628 -0.5 -0.8660254 0.04628628 0 -1 0.04628628 0.5 -0.8660254 0.04628628 0.8660254 -0.5 0.04628628 1 0 0.04628628 0.5 0.8660254 0.04628628 0 0 6.958789 -0.4298623 0.2481811 6.32889 -0.4963623 0 6.32889 0.4963623 0 6.32889 0 -0.4963623 6.32889 0.2481811 -0.4298623 6.32889 -0.4298623 -0.2481811 6.32889 0.2481811 0.4298623 6.32889 0 0.4963623 6.32889 -0.2481811 0.4298623 6.32889 0.4298623 -0.2481811 6.32889 -0.2481811 -0.4298623 6.32889 0.8660254 0.5 0.04628628 0.4298623 0.2481811 6.32889 0 1.011304 2.866618 0 1.017747 2.89629 -0.5056519 0.8758147 2.866618 -0.5088735 0.8813945 2.89629 -0.8758147 0.5056519 2.866618 -0.8813945 0.5088735 2.89629 -1.011304 0 2.866618 -1.017747 0 2.89629 -0.8758147 -0.5056519 2.866618 -0.8813945 -0.5088735 2.89629 -0.5056519 -0.8758147 2.866618 -0.5088735 -0.8813945 2.89629 0 -1.011304 2.866618 0 -1.017747 2.89629 0.5056519 -0.8758147 2.866618 0.5088735 -0.8813945 2.89629 0.8758147 -0.5056519 2.866618 0.8813945 -0.5088735 2.89629 1.011304 0 2.866618 1.017747 0 2.89629 0.5056519 0.8758147 2.866618 0.5088735 0.8813945 2.89629 0.8758147 0.5056519 2.866618 0.8813945 0.5088735 2.89629 0 0.4859754 1.479561 0 0.4858931 1.413977 0 0.4808093 1.446775 -0.2429466 0.4207958 1.413977 -0.2429877 0.420867 1.479561 -0.2404046 0.4163931 1.446775 -0.4207958 0.2429466 1.413977 -0.420867 0.2429877 1.479561 -0.4163931 0.2404046 1.446775 -0.4858931 0 1.413977 -0.4859754 0 1.479561 -0.4808093 0 1.446775 -0.4207958 -0.2429466 1.413977 -0.420867 -0.2429877 1.479561 -0.4163931 -0.2404046 1.446775 -0.2429466 -0.4207958 1.413977 -0.2429877 -0.420867 1.479561 -0.2404046 -0.4163931 1.446775 0 -0.4858931 1.413977 0 -0.4859754 1.479561 0 -0.4808093 1.446775 0.2429466 -0.4207958 1.413977 0.2429877 -0.420867 1.479561 0.2404046 -0.4163931 1.446775 0.4207958 -0.2429466 1.413977 0.420867 -0.2429877 1.479561 0.4163931 -0.2404046 1.446775 0.4858931 0 1.413977 0.4859754 0 1.479561 0.4808093 0 1.446775 0.2429877 0.420867 1.479561 0.2429466 0.4207958 1.413977 0.2404046 0.4163931 1.446775 0.4207958 0.2429466 1.413977 0.420867 0.2429877 1.479561 0.4163931 0.2404046 1.446775 0 0.3412466 6.958789 0 0.4084302 6.902792 0 0.371698 6.951287 0 0.3962889 6.93079 -0.2042151 0.3537109 6.902792 -0.1706233 0.2955282 6.958789 -0.1981444 0.3431962 6.93079 -0.185849 0.3218998 6.951287 -0.3537109 0.2042151 6.902792 -0.2955282 0.1706233 6.958789 -0.3431962 0.1981444 6.93079 -0.3218998 0.185849 6.951287 -0.4084302 0 6.902792 -0.3412466 0 6.958789 -0.3962889 0 6.93079 -0.371698 0 6.951287 -0.3537109 -0.2042151 6.902792 -0.2955282 -0.1706233 6.958789 -0.3431962 -0.1981444 6.93079 -0.3218998 -0.185849 6.951287 -0.2042151 -0.3537109 6.902792 -0.1706233 -0.2955282 6.958789 -0.1981444 -0.3431962 6.93079 -0.185849 -0.3218998 6.951287 0 -0.4084302 6.902792 0 -0.3412466 6.958789 0 -0.3962889 6.93079 0 -0.371698 6.951287 0.2042151 -0.3537109 6.902792 0.1706233 -0.2955282 6.958789 0.1981444 -0.3431962 6.93079 0.185849 -0.3218998 6.951287 0.3537109 -0.2042151 6.902792 0.2955282 -0.1706233 6.958789 0.3431962 -0.1981444 6.93079 0.3218998 -0.185849 6.951287 0.4084302 0 6.902792 0.3412466 0 6.958789 0.3962889 0 6.93079 0.371698 0 6.951287 0.1706233 0.2955282 6.958789 0.2042151 0.3537109 6.902792 0.185849 0.3218998 6.951287 0.1981444 0.3431962 6.93079 0.3537109 0.2042151 6.902792 0.2955282 0.1706233 6.958789 0.3431962 0.1981444 6.93079 0.3218998 0.185849 6.951287 -0.8660254 -0.5 0.02939802 -0.5 -0.8660254 0.02939802 0.5 0.8660254 0.02939802 0 1 0.02939802 -0.5 0.8660254 0.02939802 -0.8660254 0.5 0.02939802 0.8660254 -0.5 0.02939802 1 0 0.02939802 0 -1 0.02939802 -1 0 0.02939802 0.5 -0.8660254 0.02939802 0.8660254 0.5 0.02939802 -0.5 -0.8660254 0.01224917 0 1 0.01224917 -0.8660254 0.5 0.01224917 1 0 0.01224917 0 -1 0.01224917 -1 0 0.01224917 0.5 -0.8660254 0.01224917 0.8660254 0.5 0.01224917 -0.8660254 -0.5 0.01224917 0.5 0.8660254 0.01224917 -0.5 0.8660254 0.01224917 0.8660254 -0.5 0.01224917</float_array>
          <technique_common>
            <accessor source="#Circle-mesh-positions-array" count="169" stride="3">
              <param name="X" type="float"/>
              <param name="Y" type="float"/>
              <param name="Z" type="float"/>
            </accessor>
          </technique_common>
        </source>
        <source id="Circle-mesh-normals">
          <float_array id="Circle-mesh-normals-array" count="495">-0.4923874 -0.8528402 0.1738344 -0.8660255 -0.4999999 0 -0.5 -0.8660254 0 0 0.984775 0.1738344 0.5000001 0.8660254 0 0 1 0 -0.8528403 0.4923874 0.1738345 -0.4999998 0.8660255 0 -0.8660254 0.5000001 0 0.984775 0 0.1738344 0.8660254 -0.5000001 0 1 0 0 0 -0.984775 0.1738344 0 -1 0 -0.984775 0 0.1738344 -1 0 0 0.8528401 0.4923875 0.1738343 0.8660255 0.4999999 0 0.4923875 -0.8528402 0.1738344 0.4999998 -0.8660255 0 -0.8528401 -0.4923875 0.1738344 0.4923874 0.8528402 0.1738344 -0.4923875 0.8528401 0.1738344 0.8528402 -0.4923874 0.1738345 -0.8312081 -0.4798976 -0.280698 -0.9654554 2.22842e-7 -0.2605683 -0.8361083 -0.4827286 -0.2605687 0.8312081 0.4798976 -0.280698 0.9654554 -2.22842e-7 -0.2605683 0.8361083 0.4827286 -0.2605687 0.8312052 -0.4799009 -0.280701 0.4827276 -0.8361088 -0.2605689 0.8361094 -0.4827273 -0.2605677 -0.4798961 -0.8312083 -0.2807002 -0.4827279 -0.8361091 -0.2605676 0.4798961 0.8312083 -0.2807002 0.4827279 0.8361091 -0.2605676 0 0.9597965 -0.2806968 -2.72497e-7 0.9654554 -0.2605684 0.9597967 0 -0.2806963 0 -0.9597965 -0.2806968 2.66441e-7 -0.9654554 -0.2605683 1.42914e-7 0.9661136 0.2581174 -0.9597967 0 -0.2806963 -0.8361094 0.4827273 -0.2605677 0.9661136 3.29429e-7 0.2581177 0.4799006 -0.8312065 -0.2806977 0.4830576 0.8366786 0.2581173 -0.1213814 -0.0700832 0.9901288 -1.642e-7 0 1 -0.140187 0 0.9901251 0.121381 0.0700832 0.9901288 0.1401866 0 0.9901251 0.121374 -0.07008337 0.9901297 0.07008218 -0.1213877 0.9901281 -0.07007169 -0.1213878 0.9901288 0.07007169 0.1213878 0.9901288 0 0.1401662 0.990128 0 -0.1401662 0.990128 -0.4812244 0.833504 0.2714666 0 0.9884648 0.1514507 -0.4942318 0.856036 0.1514508 -0.121374 0.07008337 0.9901297 0.833505 0.4812231 0.271466 0.9884649 0 0.1514508 0.8560357 0.4942325 0.1514506 -0.9624483 1.36061e-7 0.2714653 -0.8560353 0.494233 0.1514508 -0.9884649 0 0.1514508 0.4812241 0.8335043 0.2714667 0.4942324 0.8560358 0.1514506 0.4812244 -0.833504 0.2714666 0 -0.9884648 0.1514507 0.4942318 -0.856036 0.1514508 -0.8335051 -0.4812232 0.271466 -0.8560357 -0.4942325 0.1514506 2.8661e-7 0.9624481 0.2714661 0.8335041 -0.4812244 0.2714663 0.8560353 -0.494233 0.1514508 -0.4812241 -0.8335043 0.2714667 -0.4942324 -0.8560358 0.1514506 -0.07008218 0.1213877 0.9901281 -0.8335041 0.4812244 0.2714664 0.9624484 -1.56218e-7 0.2714652 -3.22515e-7 -0.9624481 0.2714661 -1.40492e-7 -0.9661136 0.2581174 -0.8366788 0.4830574 0.258117 -0.4830576 -0.8366786 0.2581173 0.8366787 -0.4830574 0.258117 -0.8312052 0.4799009 -0.280701 -0.4827276 0.8361088 -0.2605689 -0.9661136 -3.29429e-7 0.2581177 0 0.9772284 -0.2121906 -0.4799006 0.8312065 -0.2806976 -0.4886187 0.8463016 -0.2121922 -0.8462989 0.4886202 -0.212199 -0.9772285 0 -0.2121899 -0.8463043 -0.4886137 -0.2121932 -0.4886106 -0.8463049 -0.2121974 0 -0.9772284 -0.2121906 0.4886187 -0.8463016 -0.2121922 0.8462989 -0.4886202 -0.212199 0.9772285 0 -0.2121899 0.8463043 0.4886137 -0.2121932 0.4886106 0.8463049 -0.2121974 -0.4999988 0.8660252 -0.00128591 0 0.9999992 -0.001285314 -0.483056 0.8366794 0.2581174 -0.8660248 0.4999994 -0.001285135 -0.9999992 0 -0.001285076 -0.8660238 -0.5000013 -0.00128591 -0.8366784 -0.4830577 0.2581174 -0.5000007 -0.8660241 -0.001284718 0 -0.9999992 -0.001285314 0.4999988 -0.8660252 -0.00128591 0.483056 -0.8366794 0.2581174 0.8660248 -0.4999994 -0.001285135 0.9999992 0 -0.001285076 0.5000007 0.8660241 -0.001284718 0.8660238 0.5000013 -0.00128591 0.8366784 0.4830577 0.2581174 -0.2400198 0.415722 0.877249 0 0.4800344 0.8772497 -0.4067575 0.704519 0.5815508 0 0.8135101 0.5815508 -0.4157148 0.2400176 0.877253 -0.7045196 0.4067549 0.5815519 -0.4800491 0 0.8772417 -0.8135101 2.05785e-7 0.5815509 -0.4157204 -0.2400172 0.8772504 -0.7045206 -0.4067538 0.5815515 -0.2400143 -0.4157222 0.8772504 -0.406757 -0.7045195 0.5815506 0 -0.4800345 0.8772497 0 -0.8135101 0.5815508 0.2400198 -0.415722 0.877249 0.4067575 -0.704519 0.5815508 0.4157148 -0.2400176 0.8772531 0.7045196 -0.4067549 0.5815519 0.4800492 0 0.8772416 0.8135101 -2.05785e-7 0.5815509 0.2400143 0.4157221 0.8772504 0.4067571 0.7045195 0.5815506 0.4157204 0.2400172 0.8772504 0.7045206 0.4067538 0.5815515 0.5000001 -0.8660254 0 0.8660254 -0.5 0 0 1 0 -0.5000001 0.8660254 0 0.8660254 0.5000002 0 0.5000001 0.8660255 0 -1 0 0 -0.8660254 -0.5000002 0 0 -1 0 1 0 0 -0.8660254 0.5 0 -0.5 -0.8660255 0 -0.5000001 -0.8660253 0 0.5000001 0.8660253 0 0 1 0 -0.8660254 0.5000001 0 0.8660254 -0.5000001 0 1 0 0 0 -1 0 -1 0 0</float_array>
          <technique_common>
            <accessor source="#Circle-mesh-normals-array" count="165" stride="3">
              <param name="X" type="float"/>
              <param name="Y" type="float"/>
              <param name="Z" type="float"/>
            </accessor>
          </technique_common>
        </source>
        <source id="Circle-mesh-map-0">
          <float_array id="Circle-mesh-map-0-array" count="1800">0 0 0 0 0 0 0 0 0 0 0 0 0 0 0 0 0 0 0 0 0 0 0 0 0 0 0 0 0 0 0 0 0 0 0 0 0 0 0 0 0 0 0 0 0 0 0 0 0 0 0 0 0 0 0 0 0 0 0 0 0 0 0 0 0 0 0 0 0 0 0 0 0 0 0 0 0 0 0 0 0 0 0 0 0 0 0 0 0 0 0 0 0 0 0 0 0 0 0 0 0 0 0 0 0 0 0 0 0 0 0 0 0 0 0 0 0 0 0 0 0 0 0 0 0 0 0 0 0 0 0 0 0 0 0 0 0 0 0 0 0 0 0 0 0 0 0 0 0 0 0 0 0 0 0 0 0 0 0 0 0 0 0 0 0 0 0 0 0 0 0 0 0 0 0 0 0 0 0 0 0 0 0 0 0 0 0 0 0 0 0 0 0 0 0 0 0 0 0 0 0 0 0 0 0 0 0 0 0 0 0 0 0 0 0 0 0 0 0 0 0 0 0 0 0 0 0 0 0 0 0 0 0 0 0 0 0 0 0 0 0 0 0 0 0 0 0 0 0 0 0 0 0 0 0 0 0 0 0 0 0 0 0 0 0 0 0 0 0 0 0 0 0 0 0 0 0 0 0 0 0 0 0 0 0 0 0 0 0 0 0 0 0 0 0 0 0 0 0 0 0 0 0 0 0 0 0 0 0 0 0 0 0 0 0 0 0 0 0 0 0 0 0 0 0 0 0 0 0 0 0 0 0 0 0 0 0 0 0 0 0 0 0 0 0 0 0 0 0 0 0 0 0 0 0 0 0 0 0 0 0 0 0 0 0 0 0 0 0 0 0 0 0 0 0 0 0 0 0 0 0 0 0 0 0 0 0 0 0 0 0 0 0 0 0 0 0 0 0 0 0 0 0 0 0 0 0 0 0 0 0 0 0 0 0 0 0 0 0 0 0 0 0 0 0 0 0 0 0 0 0 0 0 0 0 0 0 0 0 0 0 0 0 0 0 0 0 0 0 0 0 0 0 0 0 0 0 0 0 0 0 0 0 0 0 0 0 0 0 0 0 0 0 0 0 0 0 0 0 0 0 0 0 0 0 0 0 0 0 0 0 0 0 0 0 0 0 0 0 0 0 0 0 0 0 0 0 0 0 0 0 0 0 0 0 0 0 0 0 0 0 0 0 0 0 0 0 0 0 0 0 0 0 0 0 0 0 0 0 0 0 0 0 0 0 0 0 0 0 0 0 0 0 0 0 0 0 0 0 0 0 0 0 0 0 0 0 0 0 0 0 0 0 0 0 0 0 0 0 0 0 0 0 0 0 0 0 0 0 0 0 0 0 0 0 0 0 0 0 0 0 0 0 0 0 0 0 0 0 0 0 0 0 0 0 0 0 0 0 0 0 0 0 0 0 0 0 0 0 0 0 0 0 0 0 0 0 0 0 0 0 0 0 0 0 0 0 0 0 0 0 0 0 0 0 0 0 0 0 0 0 0 0 0 0 0 0 0 0 0 0 0 0 0 0 0 0 0 0 0 0 0 0 0 0 0 0 0 0 0 0 0 0 0 0 0 0 0 0 0 0 0 0 0 0 0 0 0 0 0 0 0 0 0 0 0 0 0 0 0 0 0 0 0 0 0 0 0 0 0 0 0 0 0 0 0 0 0 0 0 0 0 0 0 0 0 0 0 0 0 0 0 0 0 0 0 0 0 0 0 0 0 0 0 0 0 0 0 0 0 0 0 0 0 0 0 0 0 0 0 0 0 0 0 0 0 0 0 0 0 0 0 0 0 0 0 0 0 0 0 0 0 0 0 0 0 0 0 0 0 0 0 0 0 0 0 0 0 0 0 0 0 0 0 0 0 0 0 0 0 0 0 0 0 0 0 0 0 0 0 0 0 0 0 0 0 0 0 0 0 0 0 0 0 0 0 0 0 0 0 0 0 0 0 0 0 0 0 0 0 0 0 0 0 0 0 0 0 0 0 0 0 0 0 0 0 0 0 0 0 0 0 0 0 0 0 0 0 0 0 0 0 0 0 0 0 0 0 0 0 0 0 0 0 0 0 0 0 0 0 0 0 0 0 0 0 0 0 0 0 0 0 0 0 0 0 0 0 0 0 0 0 0 0 0 0 0 0 0 0 0 0 0 0 0 0 0 0 0 0 0 0 0 0 0 0 0 0 0 0 0 0 0 0 0 0 0 0 0 0 0 0 0 0 0 0 0 0 0 0 0 0 0 0 0 0 0 0 0 0 0 0 0 0 0 0 0 0 0 0 0 0 0 0 0 0 0 0 0 0 0 0 0 0 0 0 0 0 0 0 0 0 0 0 0 0 0 0 0 0 0 0 0 0 0 0 0 0 0 0 0 0 0 0 0 0 0 0 0 0 0 0 0 0 0 0 0 0 0 0 0 0 0 0 0 0 0 0 0 0 0 0 0 0 0 0 0 0 0 0 0 0 0 0 0 0 0 0 0 0 0 0 0 0 0 0 0 0 0 0 0 0 0 0 0 0 0 0 0 0 0 0 0 0 0 0 0 0 0 0 0 0 0 0 0 0 0 0 0 0 0 0 0 0 0 0 0 0 0 0 0 0 0 0 0 0 0 0 0 0 0 0 0 0 0 0 0 0 0 0 0 0 0 0 0 0 0 0 0 0 0 0 0 0 0 0 0 0 0 0 0 0 0 0 0 0 0 0 0 0 0 0 0 0 0 0 0 0 0 0 0 0 0 0 0 0 0 0 0 0 0 0 0 0 0 0 0 0 0 0 0 0 0 0 0 0 0 0 0 0 0 0 0 0 0 0 0 0 0 0 0 0 0 0 0 0 0 0 0 0 0 0 0 0 0 0 0 0 0 0 0 0 0 0 0 0 0 0 0 0 0 0 0 0 0 0 0 0 0 0 0 0 0 0 0 0 0 0 0 0 0 0 0 0 0 0 0 0 0 0 0 0 0 0 0 0 0 0 0 0 0 0 0 0 0 0 0 0 0 0 0 0 0 0 0 0 0 0 0 0 0 0 0 0 0 0 0 0 0 0 0 0 0 0 0 0 0 0 0 0 0 0 0 0 0 0 0 0 0 0 0 0 0 0 0 0 0 0 0 0 0 0 0 0 0 0 0 0 0 0 0 0 0 0 0 0 0 0 0 0 0 0 0 0 0 0 0 0 0 0 0 0 0 0 0 0 0 0 0 0 0 0 0 0 0 0 0 0 0 0 0 0 0 0 0 0 0 0 0 0 0 0 0 0 0 0 0 0 0 0 0 0 0 0 0 0 0 0 0 0 0 0 0 0 0 0 0 0 0 0 0 0 0 0 0 0 0 0 0 0 0 0 0 0 0 0 0 0 0 0 0 0 0 0 0 0 0 0 0 0 0 0 0 0 0 0 0 0 0 0 0 0 0 0 0 0 0 0 0 0 0 0 0 0 0 0 0 0 0 0 0 0 0 0 0 0 0 0 0 0 0 0 0 0 0 0 0 0 0 0 0 0 0 0 0 0 0 0 0 0 0 0 0 0 0 0 0 0 0 0 0 0 0 0 0 0 0 0 0 0 0 0 0 0 0 0 0 0 0 0 0 0 0 0 0 0 0 0 0 0 0 0 0 0 0 0 0 0 0 0 0 0 0 0 0 0 0 0 0 0 0 0 0 0 0 0 0 0 0 0 0 0 0 0 0 0 0 0 0 0 0 0 0 0 0 0 0 0 0 0 0 0 0 0 0 0 0 0 0 0 0 0 0 0 0 0 0 0 0 0 0 0 0 0 0 0 0 0 0 0 0 0 0 0 0 0 0 0 0 0 0 0 0 0 0 0 0 0 0 0 0 0 0 0 0 0 0 0 0 0 0 0 0 0 0 0 0 0 0 0 0 0 0 0 0 0 0 0 0 0 0 0 0 0 0 0 0 0 0 0 0 0 0 0 0 0 0 0 0 0 0 0 0 0 0 0 0 0 0 0 0 0 0 0 0 0 0 0 0 0 0 0 0 0 0 0 0 0 0 0 0 0 0 0 0 0 0 0 0 0 0 0 0 0 0 0 0 0 0 0</float_array>
          <technique_common>
            <accessor source="#Circle-mesh-map-0-array" count="900" stride="2">
              <param name="S" type="float"/>
              <param name="T" type="float"/>
            </accessor>
          </technique_common>
        </source>
        <vertices id="Circle-mesh-vertices">
          <input semantic="POSITION" source="#Circle-mesh-positions"/>
        </vertices>
        <triangles material="Metal-material" count="300">
          <input semantic="VERTEX" source="#Circle-mesh-vertices" offset="0"/>
          <input semantic="NORMAL" source="#Circle-mesh-normals" offset="1"/>
          <input semantic="TEXCOORD" source="#Circle-mesh-map-0" offset="2" set="0"/>
          <p>17 0 0 145 1 1 146 2 2 12 3 3 147 4 4 148 5 5 14 6 6 149 7 7 150 8 8 21 9 9 151 10 10 152 11 11 18 12 12 146 2 13 153 13 14 15 14 15 150 8 16 154 15 17 35 16 18 152 11 19 156 17 20 19 18 21 153 13 22 155 19 23 16 20 24 154 15 25 145 1 26 22 21 27 156 17 28 147 4 29 13 22 30 148 5 31 149 7 32 20 23 33 155 19 34 151 10 35 45 24 36 71 25 37 74 26 38 59 27 39 89 28 40 95 29 41 53 30 42 83 31 43 86 32 44 47 33 45 74 26 46 77 34 47 57 35 48 95 29 49 91 36 50 37 37 51 91 36 52 61 38 53 55 39 54 86 32 55 89 28 56 49 40 57 77 34 58 80 41 59 13 22 60 62 42 61 12 3 62 43 43 63 68 44 64 71 25 65 35 16 66 88 45 67 21 9 68 51 46 69 80 41 70 83 31 71 62 42 72 22 21 73 12 3 74 92 47 75 35 16 76 22 21 77 114 48 78 23 49 79 110 50 80 142 51 81 23 49 82 134 52 83 130 53 84 23 49 85 126 54 86 118 55 87 23 49 88 114 48 89 137 56 90 23 49 91 142 51 92 97 57 93 23 49 94 137 56 95 134 52 96 23 49 97 130 53 98 122 58 99 23 49 100 118 55 101 101 59 102 31 60 103 32 61 104 110 50 105 23 49 106 106 62 107 141 63 108 26 64 109 36 65 110 126 54 111 23 49 112 122 58 113 109 66 114 24 67 115 25 68 116 138 69 117 36 65 118 30 70 119 125 71 120 27 72 121 28 73 122 113 74 123 25 68 124 29 75 125 98 76 126 30 70 127 31 60 128 129 77 129 28 73 130 33 78 131 117 79 132 29 75 133 34 80 134 106 62 135 23 49 136 102 81 137 105 82 138 32 61 139 24 67 140 133 83 141 33 78 142 26 64 143 121 84 144 34 80 145 27 72 146 79 85 147 17 0 148 18 12 149 88 45 150 20 23 151 21 9 152 67 86 153 13 22 154 14 6 155 76 87 156 16 20 157 17 0 158 85 88 159 19 18 160 20 23 161 41 89 162 65 90 163 68 44 164 16 20 165 70 91 166 15 14 167 19 18 168 79 85 169 18 12 170 70 91 171 14 6 172 15 14 173 38 92 174 39 93 175 40 94 176 40 94 177 41 89 178 42 95 179 44 96 180 41 89 181 43 43 182 44 96 183 45 24 184 46 97 185 46 97 186 47 33 187 48 98 188 50 99 189 47 33 190 49 40 191 50 99 192 51 46 193 52 100 194 52 100 195 53 30 196 54 101 197 56 102 198 53 30 199 55 39 200 38 92 201 57 35 202 37 37 203 56 102 204 59 27 205 60 103 206 60 103 207 57 35 208 58 104 209 61 38 210 66 105 211 65 90 212 63 106 213 64 107 214 66 105 215 68 44 216 66 105 217 69 108 218 66 105 219 67 86 220 69 108 221 68 44 222 72 109 223 71 25 224 69 108 225 70 91 226 72 109 227 71 25 228 75 110 229 74 26 230 72 109 231 73 111 232 75 110 233 77 34 234 75 110 235 78 112 236 75 110 237 76 87 238 78 112 239 77 34 240 81 113 241 80 41 242 78 112 243 79 85 244 81 113 245 80 41 246 84 114 247 83 31 248 81 113 249 82 115 250 84 114 251 86 32 252 84 114 253 87 116 254 84 114 255 85 88 256 87 116 257 86 32 258 90 117 259 89 28 260 87 116 261 88 45 262 90 117 263 91 36 264 63 106 265 61 38 266 93 118 267 62 42 268 63 106 269 89 28 270 96 119 271 95 29 272 90 117 273 94 120 274 96 119 275 91 36 276 96 119 277 93 118 278 96 119 279 92 47 280 93 118 281 39 93 282 61 38 283 65 90 284 97 57 285 104 121 286 102 81 287 99 122 288 103 123 289 104 121 290 100 124 291 101 59 292 103 123 293 102 81 294 108 125 295 106 62 296 104 121 297 107 126 298 108 125 299 103 123 300 105 82 301 107 126 302 110 50 303 108 125 304 112 127 305 112 127 306 107 126 307 111 128 308 107 126 309 109 66 310 111 128 311 110 50 312 116 129 313 114 48 314 112 127 315 115 130 316 116 129 317 111 128 318 113 74 319 115 130 320 114 48 321 120 131 322 118 55 323 116 129 324 119 132 325 120 131 326 115 130 327 117 79 328 119 132 329 122 58 330 120 131 331 124 133 332 124 133 333 119 132 334 123 134 335 119 132 336 121 84 337 123 134 338 122 58 339 128 135 340 126 54 341 124 133 342 127 136 343 128 135 344 123 134 345 125 71 346 127 136 347 126 54 348 132 137 349 130 53 350 128 135 351 131 138 352 132 137 353 127 136 354 129 77 355 131 138 356 134 52 357 132 137 358 136 139 359 136 139 360 131 138 361 135 140 362 131 138 363 133 83 364 135 140 365 97 57 366 139 141 367 99 122 368 99 122 369 140 142 370 100 124 371 140 142 372 98 76 373 100 124 374 134 52 375 144 143 376 142 51 377 136 139 378 143 144 379 144 143 380 135 140 381 141 63 382 143 144 383 142 51 384 139 141 385 137 56 386 144 143 387 140 142 388 139 141 389 143 144 390 138 69 391 140 142 392 102 81 393 23 49 394 97 57 395 151 10 396 163 145 397 168 146 398 149 7 399 158 147 400 167 148 401 147 4 402 164 149 403 166 150 404 145 1 405 162 151 406 165 152 407 155 19 408 161 153 409 163 145 410 156 17 411 160 154 412 164 149 413 154 15 414 159 155 415 162 151 416 153 13 417 157 156 418 161 153 419 152 11 420 168 146 421 160 154 422 150 8 423 167 148 424 159 155 425 148 5 426 166 150 427 158 147 428 146 2 429 165 152 430 157 156 431 157 156 432 4 152 433 5 157 434 158 147 435 11 158 436 0 159 437 159 155 438 1 148 439 2 160 440 160 154 441 8 161 442 9 162 443 161 153 444 5 157 445 6 163 446 162 151 447 2 160 448 3 164 449 164 149 450 9 162 451 10 149 452 163 145 453 6 163 454 7 145 455 165 152 456 3 164 457 4 152 458 166 150 459 10 149 460 11 158 461 167 148 462 0 159 463 1 148 464 168 146 465 7 145 466 8 161 467 17 0 468 16 20 469 145 1 470 12 3 471 22 21 472 147 4 473 14 6 474 13 22 475 149 7 476 21 9 477 20 23 478 151 10 479 18 12 480 17 0 481 146 2 482 15 14 483 14 6 484 150 8 485 35 16 486 21 9 487 152 11 488 19 18 489 18 12 490 153 13 491 16 20 492 15 14 493 154 15 494 22 21 495 35 16 496 156 17 497 13 22 498 12 3 499 148 5 500 20 23 501 19 18 502 155 19 503 45 24 504 43 43 505 71 25 506 59 27 507 55 39 508 89 28 509 53 30 510 51 46 511 83 31 512 47 33 513 45 24 514 74 26 515 57 35 516 59 27 517 95 29 518 37 37 519 57 35 520 91 36 521 55 39 522 53 30 523 86 32 524 49 40 525 47 33 526 77 34 527 13 22 528 64 107 529 62 42 530 43 43 531 41 89 532 68 44 533 35 16 534 94 120 535 88 45 536 51 46 537 49 40 538 80 41 539 62 42 540 92 47 541 22 21 542 92 47 543 94 120 544 35 16 545 101 59 546 98 76 547 31 60 548 141 63 549 133 83 550 26 64 551 109 66 552 105 82 553 24 67 554 138 69 555 141 63 556 36 65 557 125 71 558 121 84 559 27 72 560 113 74 561 109 66 562 25 68 563 98 76 564 138 69 565 30 70 566 129 77 567 125 71 568 28 73 569 117 79 570 113 74 571 29 75 572 105 82 573 101 59 574 32 61 575 133 83 576 129 77 577 33 78 578 121 84 579 117 79 580 34 80 581 79 85 582 76 87 583 17 0 584 88 45 585 85 88 586 20 23 587 67 86 588 64 107 589 13 22 590 76 87 591 73 111 592 16 20 593 85 88 594 82 115 595 19 18 596 41 89 597 39 93 598 65 90 599 16 20 600 73 111 601 70 91 602 19 18 603 82 115 604 79 85 605 70 91 606 67 86 607 14 6 608 38 92 609 37 37 610 39 93 611 40 94 612 39 93 613 41 89 614 44 96 615 42 95 616 41 89 617 44 96 618 43 43 619 45 24 620 46 97 621 45 24 622 47 33 623 50 99 624 48 98 625 47 33 626 50 99 627 49 40 628 51 46 629 52 100 630 51 46 631 53 30 632 56 102 633 54 101 634 53 30 635 38 92 636 58 104 637 57 35 638 56 102 639 55 39 640 59 27 641 60 103 642 59 27 643 57 35 644 61 38 645 63 106 646 66 105 647 63 106 648 62 42 649 64 107 650 68 44 651 65 90 652 66 105 653 66 105 654 64 107 655 67 86 656 68 44 657 69 108 658 72 109 659 69 108 660 67 86 661 70 91 662 71 25 663 72 109 664 75 110 665 72 109 666 70 91 667 73 111 668 77 34 669 74 26 670 75 110 671 75 110 672 73 111 673 76 87 674 77 34 675 78 112 676 81 113 677 78 112 678 76 87 679 79 85 680 80 41 681 81 113 682 84 114 683 81 113 684 79 85 685 82 115 686 86 32 687 83 31 688 84 114 689 84 114 690 82 115 691 85 88 692 86 32 693 87 116 694 90 117 695 87 116 696 85 88 697 88 45 698 91 36 699 93 118 700 63 106 701 93 118 702 92 47 703 62 42 704 89 28 705 90 117 706 96 119 707 90 117 708 88 45 709 94 120 710 91 36 711 95 29 712 96 119 713 96 119 714 94 120 715 92 47 716 39 93 717 37 37 718 61 38 719 97 57 720 99 122 721 104 121 722 99 122 723 100 124 724 103 123 725 100 124 726 98 76 727 101 59 728 102 81 729 104 121 730 108 125 731 104 121 732 103 123 733 107 126 734 103 123 735 101 59 736 105 82 737 110 50 738 106 62 739 108 125 740 112 127 741 108 125 742 107 126 743 107 126 744 105 82 745 109 66 746 110 50 747 112 127 748 116 129 749 112 127 750 111 128 751 115 130 752 111 128 753 109 66 754 113 74 755 114 48 756 116 129 757 120 131 758 116 129 759 115 130 760 119 132 761 115 130 762 113 74 763 117 79 764 122 58 765 118 55 766 120 131 767 124 133 768 120 131 769 119 132 770 119 132 771 117 79 772 121 84 773 122 58 774 124 133 775 128 135 776 124 133 777 123 134 778 127 136 779 123 134 780 121 84 781 125 71 782 126 54 783 128 135 784 132 137 785 128 135 786 127 136 787 131 138 788 127 136 789 125 71 790 129 77 791 134 52 792 130 53 793 132 137 794 136 139 795 132 137 796 131 138 797 131 138 798 129 77 799 133 83 800 97 57 801 137 56 802 139 141 803 99 122 804 139 141 805 140 142 806 140 142 807 138 69 808 98 76 809 134 52 810 136 139 811 144 143 812 136 139 813 135 140 814 143 144 815 135 140 816 133 83 817 141 63 818 142 51 819 144 143 820 139 141 821 144 143 822 143 144 823 140 142 824 143 144 825 141 63 826 138 69 827 151 10 828 155 19 829 163 145 830 149 7 831 148 5 832 158 147 833 147 4 834 156 17 835 164 149 836 145 1 837 154 15 838 162 151 839 155 19 840 153 13 841 161 153 842 156 17 843 152 11 844 160 154 845 154 15 846 150 8 847 159 155 848 153 13 849 146 2 850 157 156 851 152 11 852 151 10 853 168 146 854 150 8 855 149 7 856 167 148 857 148 5 858 147 4 859 166 150 860 146 2 861 145 1 862 165 152 863 157 156 864 165 152 865 4 152 866 158 147 867 166 150 868 11 158 869 159 155 870 167 148 871 1 148 872 160 154 873 168 146 874 8 161 875 161 153 876 157 156 877 5 157 878 162 151 879 159 155 880 2 160 881 164 149 882 160 154 883 9 162 884 163 145 885 161 153 886 6 163 887 165 152 888 162 151 889 3 164 890 166 150 891 164 149 892 10 149 893 167 148 894 158 147 895 0 159 896 168 146 897 163 145 898 7 145 899</p>
        </triangles>
      </mesh>
    </geometry>
  </library_geometries>
  <library_visual_scenes>
    <visual_scene id="Scene" name="Scene">
      <node id="Circle_001" name="Circle.001" type="NODE">
        <matrix sid="transform">1 0 0 0 0 1 0 0 0 0 1 0 0 0 0 1</matrix>
        <instance_geometry url="#Circle_001-mesh" name="Circle.001">
          <bind_material>
            <technique_common>
              <instance_material symbol="Metal-material" target="#Metal-material">
                <bind_vertex_input semantic="UVMap" input_semantic="TEXCOORD" input_set="0"/>
              </instance_material>
              <instance_material symbol="Glass-material" target="#Glass-material">
                <bind_vertex_input semantic="UVMap" input_semantic="TEXCOORD" input_set="0"/>
              </instance_material>
            </technique_common>
          </bind_material>
        </instance_geometry>
      </node>
      <node id="Light_003" name="Light.003" type="NODE">
        <matrix sid="transform">-0.2908646 -0.7711008 0.5663932 1.962125 0.9551712 -0.1998834 0.2183912 -8.188742 -0.05518906 0.6045247 0.7946723 5.603114 0 0 0 1</matrix>
        <instance_light url="#Light_003-light"/>
      </node>
      <node id="Light_002" name="Light.002" type="NODE">
        <matrix sid="transform">-0.2908646 -0.7711008 0.5663932 6.525753 0.9551712 -0.1998834 0.2183912 1.501658 -0.05518906 0.6045247 0.7946723 4.812151 0 0 0 1</matrix>
        <instance_light url="#Light_002-light"/>
      </node>
      <node id="Light_001" name="Light.001" type="NODE">
        <matrix sid="transform">-0.2908646 -0.7711008 0.5663932 6.525753 0.9551712 -0.1998834 0.2183912 1.501658 -0.05518906 0.6045247 0.7946723 4.812151 0 0 0 1</matrix>
        <instance_light url="#Light_001-light"/>
      </node>
      <node id="Circle" name="Circle" type="NODE">
        <matrix sid="transform">1 0 0 0 0 1 0 0 0 0 1 0 0 0 0 1</matrix>
        <instance_geometry url="#Circle-mesh" name="Circle">
          <bind_material>
            <technique_common>
              <instance_material symbol="Metal-material" target="#Metal-material">
                <bind_vertex_input semantic="UVMap" input_semantic="TEXCOORD" input_set="0"/>
              </instance_material>
              <instance_material symbol="Glass-material" target="#Glass-material">
                <bind_vertex_input semantic="UVMap" input_semantic="TEXCOORD" input_set="0"/>
              </instance_material>
            </technique_common>
          </bind_material>
        </instance_geometry>
      </node>
      <node id="Camera" name="Camera" type="NODE">
        <matrix sid="transform">0.6859207 -0.3240135 0.6515582 7.358891 0.7276763 0.3054208 -0.6141704 -6.925791 0 0.8953956 0.4452714 4.958309 0 0 0 1</matrix>
        <instance_camera url="#Camera-camera"/>
      </node>
      <node id="Light" name="Light" type="NODE">
        <matrix sid="transform">-0.2908646 -0.7711008 0.5663932 -0.5774179 0.9551712 -0.1998834 0.2183912 3.847781 -0.05518906 0.6045247 0.7946723 8.514639 0 0 0 1</matrix>
        <instance_light url="#Light-light"/>
      </node>
    </visual_scene>
  </library_visual_scenes>
  <scene>
    <instance_visual_scene url="#Scene"/>
  </scene>
</COLLADA>